<?xml version="1.0" encoding="UTF-8" standalone="no"?>
<svg
   xmlns:dc="http://purl.org/dc/elements/1.1/"
   xmlns:cc="http://creativecommons.org/ns#"
   xmlns:rdf="http://www.w3.org/1999/02/22-rdf-syntax-ns#"
   xmlns:svg="http://www.w3.org/2000/svg"
   xmlns="http://www.w3.org/2000/svg"
   xmlns:xlink="http://www.w3.org/1999/xlink"
   xmlns:sodipodi="http://sodipodi.sourceforge.net/DTD/sodipodi-0.dtd"
   xmlns:inkscape="http://www.inkscape.org/namespaces/inkscape"
   width="210mm"
   height="297mm"
   viewBox="0 0 210 297"
   version="1.1"
   id="svg8"
   sodipodi:docname="fan_curve.svg"
   inkscape:version="1.0.2 (e86c870879, 2021-01-15, custom)">
  <defs
     id="defs2">
    <linearGradient
       inkscape:collect="always"
       id="linearGradient3666">
      <stop
         style="stop-color:#000000;stop-opacity:1;"
         offset="0"
         id="stop3662" />
      <stop
         style="stop-color:#000000;stop-opacity:0;"
         offset="1"
         id="stop3664" />
    </linearGradient>
    <marker
       style="overflow:visible;"
       id="Arrow2Mend"
       refX="0.0"
       refY="0.0"
       orient="auto"
       inkscape:stockid="Arrow2Mend"
       inkscape:isstock="true">
      <path
         transform="scale(0.6) rotate(180) translate(0,0)"
         d="M 8.7185878,4.0337352 L -2.2072895,0.016013256 L 8.7185884,-4.0017078 C 6.9730900,-1.6296469 6.9831476,1.6157441 8.7185878,4.0337352 z "
         style="fill-rule:evenodd;stroke-width:0.625;stroke-linejoin:round;stroke:#dedfdc;stroke-opacity:1;fill:#dedfdc;fill-opacity:1"
         id="path868" />
    </marker>
    <marker
       style="overflow:visible;"
       id="Arrow1Send"
       refX="0.0"
       refY="0.0"
       orient="auto"
       inkscape:stockid="Arrow1Send"
       inkscape:isstock="true">
      <path
         transform="scale(0.2) rotate(180) translate(6,0)"
         style="fill-rule:evenodd;stroke:#dedfdc;stroke-width:1pt;stroke-opacity:1;fill:#dedfdc;fill-opacity:1"
         d="M 0.0,0.0 L 5.0,-5.0 L -12.5,0.0 L 5.0,5.0 L 0.0,0.0 z "
         id="path856" />
    </marker>
    <marker
       style="overflow:visible"
       id="Arrow2Mstart"
       refX="0.0"
       refY="0.0"
       orient="auto"
       inkscape:stockid="Arrow2Mstart"
       inkscape:isstock="true">
      <path
         transform="scale(0.6) translate(0,0)"
         d="M 8.7185878,4.0337352 L -2.2072895,0.016013256 L 8.7185884,-4.0017078 C 6.9730900,-1.6296469 6.9831476,1.6157441 8.7185878,4.0337352 z "
         style="fill-rule:evenodd;stroke-width:0.625;stroke-linejoin:round;stroke:#dedfdc;stroke-opacity:1;fill:#dedfdc;fill-opacity:1"
         id="path865" />
    </marker>
    <marker
       style="overflow:visible"
       id="Arrow2Lstart"
       refX="0.0"
       refY="0.0"
       orient="auto"
       inkscape:stockid="Arrow2Lstart"
       inkscape:isstock="true">
      <path
         transform="scale(1.1) translate(1,0)"
         d="M 8.7185878,4.0337352 L -2.2072895,0.016013256 L 8.7185884,-4.0017078 C 6.9730900,-1.6296469 6.9831476,1.6157441 8.7185878,4.0337352 z "
         style="fill-rule:evenodd;stroke-width:0.625;stroke-linejoin:round;stroke:#dedfdc;stroke-opacity:1;fill:#dedfdc;fill-opacity:1"
         id="path859" />
    </marker>
    <marker
       style="overflow:visible"
       id="Arrow1Lstart"
       refX="0.0"
       refY="0.0"
       orient="auto"
       inkscape:stockid="Arrow1Lstart"
       inkscape:isstock="true">
      <path
         transform="scale(0.8) translate(12.5,0)"
         style="fill-rule:evenodd;stroke:#dedfdc;stroke-width:1pt;stroke-opacity:1;fill:#dedfdc;fill-opacity:1"
         d="M 0.0,0.0 L 5.0,-5.0 L -12.5,0.0 L 5.0,5.0 L 0.0,0.0 z "
         id="path841" />
    </marker>
    <g
       id="g3691">
      <symbol
         overflow="visible"
         id="symbol4841">
        <path
           style="stroke:none;"
           d=""
           id="path4280" />
      </symbol>
      <symbol
         overflow="visible"
         id="symbol1642">
        <path
           style="stroke:none;"
           d="M 4.578125 -3.1875 C 4.578125 -3.984375 4.53125 -4.78125 4.1875 -5.515625 C 3.734375 -6.484375 2.90625 -6.640625 2.5 -6.640625 C 1.890625 -6.640625 1.171875 -6.375 0.75 -5.453125 C 0.4375 -4.765625 0.390625 -3.984375 0.390625 -3.1875 C 0.390625 -2.4375 0.421875 -1.546875 0.84375 -0.78125 C 1.265625 0.015625 2 0.21875 2.484375 0.21875 C 3.015625 0.21875 3.78125 0.015625 4.21875 -0.9375 C 4.53125 -1.625 4.578125 -2.40625 4.578125 -3.1875 Z M 2.484375 0 C 2.09375 0 1.5 -0.25 1.328125 -1.203125 C 1.21875 -1.796875 1.21875 -2.71875 1.21875 -3.3125 C 1.21875 -3.953125 1.21875 -4.609375 1.296875 -5.140625 C 1.484375 -6.328125 2.234375 -6.421875 2.484375 -6.421875 C 2.8125 -6.421875 3.46875 -6.234375 3.65625 -5.25 C 3.765625 -4.6875 3.765625 -3.9375 3.765625 -3.3125 C 3.765625 -2.5625 3.765625 -1.890625 3.65625 -1.25 C 3.5 -0.296875 2.9375 0 2.484375 0 Z M 2.484375 0 "
           id="path3525" />
      </symbol>
    </g>
    <g
       id="g7806">
      <symbol
         overflow="visible"
         id="symbol4036">
        <path
           style="stroke:none;"
           d=""
           id="path8667" />
      </symbol>
      <symbol
         overflow="visible"
         id="symbol2165">
        <path
           style="stroke:none;"
           d="M 1.265625 -0.765625 L 2.328125 -1.796875 C 3.875 -3.171875 4.46875 -3.703125 4.46875 -4.703125 C 4.46875 -5.84375 3.578125 -6.640625 2.359375 -6.640625 C 1.234375 -6.640625 0.5 -5.71875 0.5 -4.828125 C 0.5 -4.28125 1 -4.28125 1.03125 -4.28125 C 1.203125 -4.28125 1.546875 -4.390625 1.546875 -4.8125 C 1.546875 -5.0625 1.359375 -5.328125 1.015625 -5.328125 C 0.9375 -5.328125 0.921875 -5.328125 0.890625 -5.3125 C 1.109375 -5.96875 1.65625 -6.328125 2.234375 -6.328125 C 3.140625 -6.328125 3.5625 -5.515625 3.5625 -4.703125 C 3.5625 -3.90625 3.078125 -3.125 2.515625 -2.5 L 0.609375 -0.375 C 0.5 -0.265625 0.5 -0.234375 0.5 0 L 4.203125 0 L 4.46875 -1.734375 L 4.234375 -1.734375 C 4.171875 -1.4375 4.109375 -1 4 -0.84375 C 3.9375 -0.765625 3.28125 -0.765625 3.0625 -0.765625 Z M 1.265625 -0.765625 "
           id="path5325" />
      </symbol>
      <symbol
         overflow="visible"
         id="symbol5411">
        <path
           style="stroke:none;"
           d="M 4.578125 -3.1875 C 4.578125 -3.984375 4.53125 -4.78125 4.1875 -5.515625 C 3.734375 -6.484375 2.90625 -6.640625 2.5 -6.640625 C 1.890625 -6.640625 1.171875 -6.375 0.75 -5.453125 C 0.4375 -4.765625 0.390625 -3.984375 0.390625 -3.1875 C 0.390625 -2.4375 0.421875 -1.546875 0.84375 -0.78125 C 1.265625 0.015625 2 0.21875 2.484375 0.21875 C 3.015625 0.21875 3.78125 0.015625 4.21875 -0.9375 C 4.53125 -1.625 4.578125 -2.40625 4.578125 -3.1875 Z M 2.484375 0 C 2.09375 0 1.5 -0.25 1.328125 -1.203125 C 1.21875 -1.796875 1.21875 -2.71875 1.21875 -3.3125 C 1.21875 -3.953125 1.21875 -4.609375 1.296875 -5.140625 C 1.484375 -6.328125 2.234375 -6.421875 2.484375 -6.421875 C 2.8125 -6.421875 3.46875 -6.234375 3.65625 -5.25 C 3.765625 -4.6875 3.765625 -3.9375 3.765625 -3.3125 C 3.765625 -2.5625 3.765625 -1.890625 3.65625 -1.25 C 3.5 -0.296875 2.9375 0 2.484375 0 Z M 2.484375 0 "
           id="path5143" />
      </symbol>
    </g>
    <g
       id="g3571">
      <symbol
         overflow="visible"
         id="symbol6993">
        <path
           style="stroke:none;"
           d=""
           id="path9097" />
      </symbol>
      <symbol
         overflow="visible"
         id="symbol3981">
        <path
           style="stroke:none;"
           d="M 2.890625 -3.515625 C 3.703125 -3.78125 4.28125 -4.46875 4.28125 -5.265625 C 4.28125 -6.078125 3.40625 -6.640625 2.453125 -6.640625 C 1.453125 -6.640625 0.6875 -6.046875 0.6875 -5.28125 C 0.6875 -4.953125 0.90625 -4.765625 1.203125 -4.765625 C 1.5 -4.765625 1.703125 -4.984375 1.703125 -5.28125 C 1.703125 -5.765625 1.234375 -5.765625 1.09375 -5.765625 C 1.390625 -6.265625 2.046875 -6.390625 2.40625 -6.390625 C 2.828125 -6.390625 3.375 -6.171875 3.375 -5.28125 C 3.375 -5.15625 3.34375 -4.578125 3.09375 -4.140625 C 2.796875 -3.65625 2.453125 -3.625 2.203125 -3.625 C 2.125 -3.609375 1.890625 -3.59375 1.8125 -3.59375 C 1.734375 -3.578125 1.671875 -3.5625 1.671875 -3.46875 C 1.671875 -3.359375 1.734375 -3.359375 1.90625 -3.359375 L 2.34375 -3.359375 C 3.15625 -3.359375 3.53125 -2.6875 3.53125 -1.703125 C 3.53125 -0.34375 2.84375 -0.0625 2.40625 -0.0625 C 1.96875 -0.0625 1.21875 -0.234375 0.875 -0.8125 C 1.21875 -0.765625 1.53125 -0.984375 1.53125 -1.359375 C 1.53125 -1.71875 1.265625 -1.921875 0.984375 -1.921875 C 0.734375 -1.921875 0.421875 -1.78125 0.421875 -1.34375 C 0.421875 -0.4375 1.34375 0.21875 2.4375 0.21875 C 3.65625 0.21875 4.5625 -0.6875 4.5625 -1.703125 C 4.5625 -2.515625 3.921875 -3.296875 2.890625 -3.515625 Z M 2.890625 -3.515625 "
           id="path2160" />
      </symbol>
      <symbol
         overflow="visible"
         id="symbol6387">
        <path
           style="stroke:none;"
           d="M 4.578125 -3.1875 C 4.578125 -3.984375 4.53125 -4.78125 4.1875 -5.515625 C 3.734375 -6.484375 2.90625 -6.640625 2.5 -6.640625 C 1.890625 -6.640625 1.171875 -6.375 0.75 -5.453125 C 0.4375 -4.765625 0.390625 -3.984375 0.390625 -3.1875 C 0.390625 -2.4375 0.421875 -1.546875 0.84375 -0.78125 C 1.265625 0.015625 2 0.21875 2.484375 0.21875 C 3.015625 0.21875 3.78125 0.015625 4.21875 -0.9375 C 4.53125 -1.625 4.578125 -2.40625 4.578125 -3.1875 Z M 2.484375 0 C 2.09375 0 1.5 -0.25 1.328125 -1.203125 C 1.21875 -1.796875 1.21875 -2.71875 1.21875 -3.3125 C 1.21875 -3.953125 1.21875 -4.609375 1.296875 -5.140625 C 1.484375 -6.328125 2.234375 -6.421875 2.484375 -6.421875 C 2.8125 -6.421875 3.46875 -6.234375 3.65625 -5.25 C 3.765625 -4.6875 3.765625 -3.9375 3.765625 -3.3125 C 3.765625 -2.5625 3.765625 -1.890625 3.65625 -1.25 C 3.5 -0.296875 2.9375 0 2.484375 0 Z M 2.484375 0 "
           id="path5094" />
      </symbol>
    </g>
    <g
       id="g484">
      <symbol
         overflow="visible"
         id="symbol4935">
        <path
           style="stroke:none;"
           d=""
           id="path6451" />
      </symbol>
      <symbol
         overflow="visible"
         id="symbol4896">
        <path
           style="stroke:none;"
           d="M 2.9375 -1.640625 L 2.9375 -0.78125 C 2.9375 -0.421875 2.90625 -0.3125 2.171875 -0.3125 L 1.96875 -0.3125 L 1.96875 0 C 2.375 -0.03125 2.890625 -0.03125 3.3125 -0.03125 C 3.734375 -0.03125 4.25 -0.03125 4.671875 0 L 4.671875 -0.3125 L 4.453125 -0.3125 C 3.71875 -0.3125 3.703125 -0.421875 3.703125 -0.78125 L 3.703125 -1.640625 L 4.6875 -1.640625 L 4.6875 -1.953125 L 3.703125 -1.953125 L 3.703125 -6.484375 C 3.703125 -6.6875 3.703125 -6.75 3.53125 -6.75 C 3.453125 -6.75 3.421875 -6.75 3.34375 -6.625 L 0.28125 -1.953125 L 0.28125 -1.640625 Z M 2.984375 -1.953125 L 0.5625 -1.953125 L 2.984375 -5.671875 Z M 2.984375 -1.953125 "
           id="path4565" />
      </symbol>
      <symbol
         overflow="visible"
         id="symbol8643">
        <path
           style="stroke:none;"
           d="M 1.625 -4.5625 C 1.171875 -4.859375 1.125 -5.1875 1.125 -5.359375 C 1.125 -5.96875 1.78125 -6.390625 2.484375 -6.390625 C 3.203125 -6.390625 3.84375 -5.875 3.84375 -5.15625 C 3.84375 -4.578125 3.453125 -4.109375 2.859375 -3.765625 Z M 3.078125 -3.609375 C 3.796875 -3.984375 4.28125 -4.5 4.28125 -5.15625 C 4.28125 -6.078125 3.40625 -6.640625 2.5 -6.640625 C 1.5 -6.640625 0.6875 -5.90625 0.6875 -4.96875 C 0.6875 -4.796875 0.703125 -4.34375 1.125 -3.875 C 1.234375 -3.765625 1.609375 -3.515625 1.859375 -3.34375 C 1.28125 -3.046875 0.421875 -2.5 0.421875 -1.5 C 0.421875 -0.453125 1.4375 0.21875 2.484375 0.21875 C 3.609375 0.21875 4.5625 -0.609375 4.5625 -1.671875 C 4.5625 -2.03125 4.453125 -2.484375 4.0625 -2.90625 C 3.875 -3.109375 3.71875 -3.203125 3.078125 -3.609375 Z M 2.078125 -3.1875 L 3.3125 -2.40625 C 3.59375 -2.21875 4.0625 -1.921875 4.0625 -1.3125 C 4.0625 -0.578125 3.3125 -0.0625 2.5 -0.0625 C 1.640625 -0.0625 0.921875 -0.671875 0.921875 -1.5 C 0.921875 -2.078125 1.234375 -2.71875 2.078125 -3.1875 Z M 2.078125 -3.1875 "
           id="path5737" />
      </symbol>
      <symbol
         overflow="visible"
         id="symbol1833">
        <path
           style="stroke:none;"
           d="M 4.578125 -3.1875 C 4.578125 -3.984375 4.53125 -4.78125 4.1875 -5.515625 C 3.734375 -6.484375 2.90625 -6.640625 2.5 -6.640625 C 1.890625 -6.640625 1.171875 -6.375 0.75 -5.453125 C 0.4375 -4.765625 0.390625 -3.984375 0.390625 -3.1875 C 0.390625 -2.4375 0.421875 -1.546875 0.84375 -0.78125 C 1.265625 0.015625 2 0.21875 2.484375 0.21875 C 3.015625 0.21875 3.78125 0.015625 4.21875 -0.9375 C 4.53125 -1.625 4.578125 -2.40625 4.578125 -3.1875 Z M 2.484375 0 C 2.09375 0 1.5 -0.25 1.328125 -1.203125 C 1.21875 -1.796875 1.21875 -2.71875 1.21875 -3.3125 C 1.21875 -3.953125 1.21875 -4.609375 1.296875 -5.140625 C 1.484375 -6.328125 2.234375 -6.421875 2.484375 -6.421875 C 2.8125 -6.421875 3.46875 -6.234375 3.65625 -5.25 C 3.765625 -4.6875 3.765625 -3.9375 3.765625 -3.3125 C 3.765625 -2.5625 3.765625 -1.890625 3.65625 -1.25 C 3.5 -0.296875 2.9375 0 2.484375 0 Z M 2.484375 0 "
           id="path3421" />
      </symbol>
    </g>
    <g
       id="g1693">
      <symbol
         overflow="visible"
         id="symbol5265">
        <path
           style="stroke:none;"
           d=""
           id="path3087" />
      </symbol>
      <symbol
         overflow="visible"
         id="symbol2358">
        <path
           style="stroke:none;"
           d="M 4.46875 -2 C 4.46875 -3.1875 3.65625 -4.1875 2.578125 -4.1875 C 2.109375 -4.1875 1.671875 -4.03125 1.3125 -3.671875 L 1.3125 -5.625 C 1.515625 -5.5625 1.84375 -5.5 2.15625 -5.5 C 3.390625 -5.5 4.09375 -6.40625 4.09375 -6.53125 C 4.09375 -6.59375 4.0625 -6.640625 3.984375 -6.640625 C 3.984375 -6.640625 3.953125 -6.640625 3.90625 -6.609375 C 3.703125 -6.515625 3.21875 -6.3125 2.546875 -6.3125 C 2.15625 -6.3125 1.6875 -6.390625 1.21875 -6.59375 C 1.140625 -6.625 1.125 -6.625 1.109375 -6.625 C 1 -6.625 1 -6.546875 1 -6.390625 L 1 -3.4375 C 1 -3.265625 1 -3.1875 1.140625 -3.1875 C 1.21875 -3.1875 1.234375 -3.203125 1.28125 -3.265625 C 1.390625 -3.421875 1.75 -3.96875 2.5625 -3.96875 C 3.078125 -3.96875 3.328125 -3.515625 3.40625 -3.328125 C 3.5625 -2.953125 3.59375 -2.578125 3.59375 -2.078125 C 3.59375 -1.71875 3.59375 -1.125 3.34375 -0.703125 C 3.109375 -0.3125 2.734375 -0.0625 2.28125 -0.0625 C 1.5625 -0.0625 0.984375 -0.59375 0.8125 -1.171875 C 0.84375 -1.171875 0.875 -1.15625 0.984375 -1.15625 C 1.3125 -1.15625 1.484375 -1.40625 1.484375 -1.640625 C 1.484375 -1.890625 1.3125 -2.140625 0.984375 -2.140625 C 0.84375 -2.140625 0.5 -2.0625 0.5 -1.609375 C 0.5 -0.75 1.1875 0.21875 2.296875 0.21875 C 3.453125 0.21875 4.46875 -0.734375 4.46875 -2 Z M 4.46875 -2 "
           id="path4614" />
      </symbol>
      <symbol
         overflow="visible"
         id="symbol1646">
        <path
           style="stroke:none;"
           d="M 2.9375 -1.640625 L 2.9375 -0.78125 C 2.9375 -0.421875 2.90625 -0.3125 2.171875 -0.3125 L 1.96875 -0.3125 L 1.96875 0 C 2.375 -0.03125 2.890625 -0.03125 3.3125 -0.03125 C 3.734375 -0.03125 4.25 -0.03125 4.671875 0 L 4.671875 -0.3125 L 4.453125 -0.3125 C 3.71875 -0.3125 3.703125 -0.421875 3.703125 -0.78125 L 3.703125 -1.640625 L 4.6875 -1.640625 L 4.6875 -1.953125 L 3.703125 -1.953125 L 3.703125 -6.484375 C 3.703125 -6.6875 3.703125 -6.75 3.53125 -6.75 C 3.453125 -6.75 3.421875 -6.75 3.34375 -6.625 L 0.28125 -1.953125 L 0.28125 -1.640625 Z M 2.984375 -1.953125 L 0.5625 -1.953125 L 2.984375 -5.671875 Z M 2.984375 -1.953125 "
           id="path5518" />
      </symbol>
      <symbol
         overflow="visible"
         id="symbol6511">
        <path
           style="stroke:none;"
           d="M 4.578125 -3.1875 C 4.578125 -3.984375 4.53125 -4.78125 4.1875 -5.515625 C 3.734375 -6.484375 2.90625 -6.640625 2.5 -6.640625 C 1.890625 -6.640625 1.171875 -6.375 0.75 -5.453125 C 0.4375 -4.765625 0.390625 -3.984375 0.390625 -3.1875 C 0.390625 -2.4375 0.421875 -1.546875 0.84375 -0.78125 C 1.265625 0.015625 2 0.21875 2.484375 0.21875 C 3.015625 0.21875 3.78125 0.015625 4.21875 -0.9375 C 4.53125 -1.625 4.578125 -2.40625 4.578125 -3.1875 Z M 2.484375 0 C 2.09375 0 1.5 -0.25 1.328125 -1.203125 C 1.21875 -1.796875 1.21875 -2.71875 1.21875 -3.3125 C 1.21875 -3.953125 1.21875 -4.609375 1.296875 -5.140625 C 1.484375 -6.328125 2.234375 -6.421875 2.484375 -6.421875 C 2.8125 -6.421875 3.46875 -6.234375 3.65625 -5.25 C 3.765625 -4.6875 3.765625 -3.9375 3.765625 -3.3125 C 3.765625 -2.5625 3.765625 -1.890625 3.65625 -1.25 C 3.5 -0.296875 2.9375 0 2.484375 0 Z M 2.484375 0 "
           id="path1815" />
      </symbol>
    </g>
    <g
       id="g6033">
      <symbol
         overflow="visible"
         id="symbol6593">
        <path
           style="stroke:none;"
           d=""
           id="path6704" />
      </symbol>
      <symbol
         overflow="visible"
         id="symbol9915">
        <path
           style="stroke:none;"
           d="M 2.046875 -3.984375 L 2.984375 -3.984375 C 3.1875 -3.984375 3.296875 -3.984375 3.296875 -4.1875 C 3.296875 -4.296875 3.1875 -4.296875 3.015625 -4.296875 L 2.140625 -4.296875 C 2.5 -5.71875 2.546875 -5.90625 2.546875 -5.96875 C 2.546875 -6.140625 2.421875 -6.234375 2.25 -6.234375 C 2.21875 -6.234375 1.9375 -6.234375 1.859375 -5.875 L 1.46875 -4.296875 L 0.53125 -4.296875 C 0.328125 -4.296875 0.234375 -4.296875 0.234375 -4.109375 C 0.234375 -3.984375 0.3125 -3.984375 0.515625 -3.984375 L 1.390625 -3.984375 C 0.671875 -1.15625 0.625 -0.984375 0.625 -0.8125 C 0.625 -0.265625 1 0.109375 1.546875 0.109375 C 2.5625 0.109375 3.125 -1.34375 3.125 -1.421875 C 3.125 -1.53125 3.046875 -1.53125 3.015625 -1.53125 C 2.921875 -1.53125 2.90625 -1.5 2.859375 -1.390625 C 2.4375 -0.34375 1.90625 -0.109375 1.5625 -0.109375 C 1.359375 -0.109375 1.25 -0.234375 1.25 -0.5625 C 1.25 -0.8125 1.28125 -0.875 1.3125 -1.046875 Z M 2.046875 -3.984375 "
           id="path6802" />
      </symbol>
      <symbol
         overflow="visible"
         id="symbol1624">
        <path
           style="stroke:none;"
           d=""
           id="path4025" />
      </symbol>
      <symbol
         overflow="visible"
         id="symbol7946">
        <path
           style="stroke:none;"
           d="M 2.328125 -4.4375 C 2.328125 -4.625 2.328125 -4.625 2.125 -4.625 C 1.671875 -4.1875 1.046875 -4.1875 0.765625 -4.1875 L 0.765625 -3.9375 C 0.921875 -3.9375 1.390625 -3.9375 1.765625 -4.125 L 1.765625 -0.578125 C 1.765625 -0.34375 1.765625 -0.25 1.078125 -0.25 L 0.8125 -0.25 L 0.8125 0 C 0.9375 0 1.796875 -0.03125 2.046875 -0.03125 C 2.265625 -0.03125 3.140625 0 3.296875 0 L 3.296875 -0.25 L 3.03125 -0.25 C 2.328125 -0.25 2.328125 -0.34375 2.328125 -0.578125 Z M 2.328125 -4.4375 "
           id="path7684" />
      </symbol>
    </g>
    <g
       id="g2680">
      <symbol
         overflow="visible"
         id="symbol8063">
        <path
           style="stroke:none;"
           d=""
           id="path2196" />
      </symbol>
      <symbol
         overflow="visible"
         id="symbol687">
        <path
           style="stroke:none;"
           d="M 2.046875 -3.984375 L 2.984375 -3.984375 C 3.1875 -3.984375 3.296875 -3.984375 3.296875 -4.1875 C 3.296875 -4.296875 3.1875 -4.296875 3.015625 -4.296875 L 2.140625 -4.296875 C 2.5 -5.71875 2.546875 -5.90625 2.546875 -5.96875 C 2.546875 -6.140625 2.421875 -6.234375 2.25 -6.234375 C 2.21875 -6.234375 1.9375 -6.234375 1.859375 -5.875 L 1.46875 -4.296875 L 0.53125 -4.296875 C 0.328125 -4.296875 0.234375 -4.296875 0.234375 -4.109375 C 0.234375 -3.984375 0.3125 -3.984375 0.515625 -3.984375 L 1.390625 -3.984375 C 0.671875 -1.15625 0.625 -0.984375 0.625 -0.8125 C 0.625 -0.265625 1 0.109375 1.546875 0.109375 C 2.5625 0.109375 3.125 -1.34375 3.125 -1.421875 C 3.125 -1.53125 3.046875 -1.53125 3.015625 -1.53125 C 2.921875 -1.53125 2.90625 -1.5 2.859375 -1.390625 C 2.4375 -0.34375 1.90625 -0.109375 1.5625 -0.109375 C 1.359375 -0.109375 1.25 -0.234375 1.25 -0.5625 C 1.25 -0.8125 1.28125 -0.875 1.3125 -1.046875 Z M 2.046875 -3.984375 "
           id="path762" />
      </symbol>
      <symbol
         overflow="visible"
         id="symbol2523">
        <path
           style="stroke:none;"
           d=""
           id="path3844" />
      </symbol>
      <symbol
         overflow="visible"
         id="symbol1441">
        <path
           style="stroke:none;"
           d="M 3.515625 -1.265625 L 3.28125 -1.265625 C 3.265625 -1.109375 3.1875 -0.703125 3.09375 -0.640625 C 3.046875 -0.59375 2.515625 -0.59375 2.40625 -0.59375 L 1.125 -0.59375 C 1.859375 -1.234375 2.109375 -1.4375 2.515625 -1.765625 C 3.03125 -2.171875 3.515625 -2.609375 3.515625 -3.265625 C 3.515625 -4.109375 2.78125 -4.625 1.890625 -4.625 C 1.03125 -4.625 0.4375 -4.015625 0.4375 -3.375 C 0.4375 -3.03125 0.734375 -2.984375 0.8125 -2.984375 C 0.96875 -2.984375 1.171875 -3.109375 1.171875 -3.359375 C 1.171875 -3.484375 1.125 -3.734375 0.765625 -3.734375 C 0.984375 -4.21875 1.453125 -4.375 1.78125 -4.375 C 2.484375 -4.375 2.84375 -3.828125 2.84375 -3.265625 C 2.84375 -2.65625 2.40625 -2.1875 2.1875 -1.9375 L 0.515625 -0.265625 C 0.4375 -0.203125 0.4375 -0.1875 0.4375 0 L 3.3125 0 Z M 3.515625 -1.265625 "
           id="path5522" />
      </symbol>
    </g>
    <g
       id="g4101">
      <symbol
         overflow="visible"
         id="symbol9696">
        <path
           style="stroke:none;"
           d=""
           id="path3757" />
      </symbol>
      <symbol
         overflow="visible"
         id="symbol4897">
        <path
           style="stroke:none;"
           d="M 2.046875 -3.984375 L 2.984375 -3.984375 C 3.1875 -3.984375 3.296875 -3.984375 3.296875 -4.1875 C 3.296875 -4.296875 3.1875 -4.296875 3.015625 -4.296875 L 2.140625 -4.296875 C 2.5 -5.71875 2.546875 -5.90625 2.546875 -5.96875 C 2.546875 -6.140625 2.421875 -6.234375 2.25 -6.234375 C 2.21875 -6.234375 1.9375 -6.234375 1.859375 -5.875 L 1.46875 -4.296875 L 0.53125 -4.296875 C 0.328125 -4.296875 0.234375 -4.296875 0.234375 -4.109375 C 0.234375 -3.984375 0.3125 -3.984375 0.515625 -3.984375 L 1.390625 -3.984375 C 0.671875 -1.15625 0.625 -0.984375 0.625 -0.8125 C 0.625 -0.265625 1 0.109375 1.546875 0.109375 C 2.5625 0.109375 3.125 -1.34375 3.125 -1.421875 C 3.125 -1.53125 3.046875 -1.53125 3.015625 -1.53125 C 2.921875 -1.53125 2.90625 -1.5 2.859375 -1.390625 C 2.4375 -0.34375 1.90625 -0.109375 1.5625 -0.109375 C 1.359375 -0.109375 1.25 -0.234375 1.25 -0.5625 C 1.25 -0.8125 1.28125 -0.875 1.3125 -1.046875 Z M 2.046875 -3.984375 "
           id="path6430" />
      </symbol>
      <symbol
         overflow="visible"
         id="symbol8250">
        <path
           style="stroke:none;"
           d=""
           id="path9905" />
      </symbol>
      <symbol
         overflow="visible"
         id="symbol8811">
        <path
           style="stroke:none;"
           d="M 1.90625 -2.328125 C 2.453125 -2.328125 2.84375 -1.953125 2.84375 -1.203125 C 2.84375 -0.34375 2.328125 -0.078125 1.9375 -0.078125 C 1.65625 -0.078125 1.03125 -0.15625 0.75 -0.578125 C 1.078125 -0.578125 1.15625 -0.8125 1.15625 -0.96875 C 1.15625 -1.1875 0.984375 -1.34375 0.765625 -1.34375 C 0.578125 -1.34375 0.375 -1.21875 0.375 -0.9375 C 0.375 -0.28125 1.09375 0.140625 1.9375 0.140625 C 2.90625 0.140625 3.578125 -0.515625 3.578125 -1.203125 C 3.578125 -1.75 3.140625 -2.296875 2.375 -2.453125 C 3.09375 -2.71875 3.359375 -3.234375 3.359375 -3.671875 C 3.359375 -4.21875 2.734375 -4.625 1.953125 -4.625 C 1.1875 -4.625 0.59375 -4.25 0.59375 -3.6875 C 0.59375 -3.453125 0.75 -3.328125 0.953125 -3.328125 C 1.171875 -3.328125 1.3125 -3.484375 1.3125 -3.671875 C 1.3125 -3.875 1.171875 -4.03125 0.953125 -4.046875 C 1.203125 -4.34375 1.671875 -4.421875 1.9375 -4.421875 C 2.25 -4.421875 2.6875 -4.265625 2.6875 -3.671875 C 2.6875 -3.375 2.59375 -3.046875 2.40625 -2.84375 C 2.1875 -2.578125 1.984375 -2.5625 1.640625 -2.53125 C 1.46875 -2.515625 1.453125 -2.515625 1.421875 -2.515625 C 1.40625 -2.515625 1.34375 -2.5 1.34375 -2.421875 C 1.34375 -2.328125 1.40625 -2.328125 1.53125 -2.328125 Z M 1.90625 -2.328125 "
           id="path4518" />
      </symbol>
    </g>
    <g
       id="g5860">
      <symbol
         overflow="visible"
         id="symbol3050">
        <path
           style="stroke:none;"
           d=""
           id="path1496" />
      </symbol>
      <symbol
         overflow="visible"
         id="symbol751">
        <path
           style="stroke:none;"
           d="M 2.046875 -3.984375 L 2.984375 -3.984375 C 3.1875 -3.984375 3.296875 -3.984375 3.296875 -4.1875 C 3.296875 -4.296875 3.1875 -4.296875 3.015625 -4.296875 L 2.140625 -4.296875 C 2.5 -5.71875 2.546875 -5.90625 2.546875 -5.96875 C 2.546875 -6.140625 2.421875 -6.234375 2.25 -6.234375 C 2.21875 -6.234375 1.9375 -6.234375 1.859375 -5.875 L 1.46875 -4.296875 L 0.53125 -4.296875 C 0.328125 -4.296875 0.234375 -4.296875 0.234375 -4.109375 C 0.234375 -3.984375 0.3125 -3.984375 0.515625 -3.984375 L 1.390625 -3.984375 C 0.671875 -1.15625 0.625 -0.984375 0.625 -0.8125 C 0.625 -0.265625 1 0.109375 1.546875 0.109375 C 2.5625 0.109375 3.125 -1.34375 3.125 -1.421875 C 3.125 -1.53125 3.046875 -1.53125 3.015625 -1.53125 C 2.921875 -1.53125 2.90625 -1.5 2.859375 -1.390625 C 2.4375 -0.34375 1.90625 -0.109375 1.5625 -0.109375 C 1.359375 -0.109375 1.25 -0.234375 1.25 -0.5625 C 1.25 -0.8125 1.28125 -0.875 1.3125 -1.046875 Z M 2.046875 -3.984375 "
           id="path1490" />
      </symbol>
      <symbol
         overflow="visible"
         id="symbol5892">
        <path
           style="stroke:none;"
           d=""
           id="path8533" />
      </symbol>
      <symbol
         overflow="visible"
         id="symbol4045">
        <path
           style="stroke:none;"
           d="M 3.6875 -1.140625 L 3.6875 -1.390625 L 2.90625 -1.390625 L 2.90625 -4.5 C 2.90625 -4.640625 2.90625 -4.703125 2.765625 -4.703125 C 2.671875 -4.703125 2.640625 -4.703125 2.578125 -4.59375 L 0.265625 -1.390625 L 0.265625 -1.140625 L 2.328125 -1.140625 L 2.328125 -0.578125 C 2.328125 -0.328125 2.328125 -0.25 1.75 -0.25 L 1.5625 -0.25 L 1.5625 0 C 1.921875 -0.015625 2.359375 -0.03125 2.609375 -0.03125 C 2.875 -0.03125 3.3125 -0.015625 3.671875 0 L 3.671875 -0.25 L 3.484375 -0.25 C 2.90625 -0.25 2.90625 -0.328125 2.90625 -0.578125 L 2.90625 -1.140625 Z M 2.375 -3.9375 L 2.375 -1.390625 L 0.53125 -1.390625 Z M 2.375 -3.9375 "
           id="path1048" />
      </symbol>
    </g>
    <g
       id="g6481">
      <symbol
         overflow="visible"
         id="symbol9082">
        <path
           style="stroke:none;"
           d=""
           id="path6711" />
      </symbol>
      <symbol
         overflow="visible"
         id="symbol4555">
        <path
           style="stroke:none;"
           d="M 2.234375 -3.515625 L 2.234375 -6.09375 C 2.234375 -6.328125 2.234375 -6.453125 2.453125 -6.484375 C 2.546875 -6.5 2.84375 -6.5 3.046875 -6.5 C 3.9375 -6.5 5.046875 -6.453125 5.046875 -5.015625 C 5.046875 -4.328125 4.8125 -3.515625 3.34375 -3.515625 Z M 4.34375 -3.390625 C 5.296875 -3.625 6.078125 -4.234375 6.078125 -5.015625 C 6.078125 -5.96875 4.9375 -6.8125 3.484375 -6.8125 L 0.34375 -6.8125 L 0.34375 -6.5 L 0.59375 -6.5 C 1.359375 -6.5 1.375 -6.390625 1.375 -6.03125 L 1.375 -0.78125 C 1.375 -0.421875 1.359375 -0.3125 0.59375 -0.3125 L 0.34375 -0.3125 L 0.34375 0 C 0.703125 -0.03125 1.421875 -0.03125 1.796875 -0.03125 C 2.1875 -0.03125 2.90625 -0.03125 3.265625 0 L 3.265625 -0.3125 L 3.015625 -0.3125 C 2.25 -0.3125 2.234375 -0.421875 2.234375 -0.78125 L 2.234375 -3.296875 L 3.375 -3.296875 C 3.53125 -3.296875 3.953125 -3.296875 4.3125 -2.953125 C 4.6875 -2.609375 4.6875 -2.296875 4.6875 -1.625 C 4.6875 -0.984375 4.6875 -0.578125 5.09375 -0.203125 C 5.5 0.15625 6.046875 0.21875 6.34375 0.21875 C 7.125 0.21875 7.296875 -0.59375 7.296875 -0.875 C 7.296875 -0.9375 7.296875 -1.046875 7.171875 -1.046875 C 7.0625 -1.046875 7.0625 -0.953125 7.046875 -0.890625 C 6.984375 -0.171875 6.640625 0 6.390625 0 C 5.90625 0 5.828125 -0.515625 5.6875 -1.4375 L 5.546875 -2.234375 C 5.375 -2.875 4.890625 -3.203125 4.34375 -3.390625 Z M 4.34375 -3.390625 "
           id="path4162" />
      </symbol>
      <symbol
         overflow="visible"
         id="symbol197">
        <path
           style="stroke:none;"
           d="M 2.265625 -3.15625 L 3.953125 -3.15625 C 5.140625 -3.15625 6.21875 -3.953125 6.21875 -4.953125 C 6.21875 -5.9375 5.234375 -6.8125 3.875 -6.8125 L 0.34375 -6.8125 L 0.34375 -6.5 L 0.59375 -6.5 C 1.359375 -6.5 1.375 -6.390625 1.375 -6.03125 L 1.375 -0.78125 C 1.375 -0.421875 1.359375 -0.3125 0.59375 -0.3125 L 0.34375 -0.3125 L 0.34375 0 C 0.703125 -0.03125 1.4375 -0.03125 1.8125 -0.03125 C 2.1875 -0.03125 2.9375 -0.03125 3.296875 0 L 3.296875 -0.3125 L 3.046875 -0.3125 C 2.28125 -0.3125 2.265625 -0.421875 2.265625 -0.78125 Z M 2.234375 -3.40625 L 2.234375 -6.09375 C 2.234375 -6.4375 2.25 -6.5 2.71875 -6.5 L 3.609375 -6.5 C 5.1875 -6.5 5.1875 -5.4375 5.1875 -4.953125 C 5.1875 -4.484375 5.1875 -3.40625 3.609375 -3.40625 Z M 2.234375 -3.40625 "
           id="path8537" />
      </symbol>
      <symbol
         overflow="visible"
         id="symbol6110">
        <path
           style="stroke:none;"
           d="M 2.40625 -6.59375 C 2.3125 -6.8125 2.28125 -6.8125 2.046875 -6.8125 L 0.375 -6.8125 L 0.375 -6.5 L 0.609375 -6.5 C 1.375 -6.5 1.390625 -6.390625 1.390625 -6.03125 L 1.390625 -1.046875 C 1.390625 -0.78125 1.390625 -0.3125 0.375 -0.3125 L 0.375 0 C 0.71875 -0.015625 1.203125 -0.03125 1.53125 -0.03125 C 1.859375 -0.03125 2.359375 -0.015625 2.703125 0 L 2.703125 -0.3125 C 1.671875 -0.3125 1.671875 -0.78125 1.671875 -1.046875 L 1.671875 -6.421875 L 1.6875 -6.421875 L 4.09375 -0.21875 C 4.140625 -0.09375 4.1875 0 4.28125 0 C 4.390625 0 4.421875 -0.078125 4.46875 -0.1875 L 6.921875 -6.5 L 6.921875 -0.78125 C 6.921875 -0.421875 6.90625 -0.3125 6.140625 -0.3125 L 5.90625 -0.3125 L 5.90625 0 C 6.265625 -0.03125 6.953125 -0.03125 7.34375 -0.03125 C 7.71875 -0.03125 8.390625 -0.03125 8.765625 0 L 8.765625 -0.3125 L 8.515625 -0.3125 C 7.75 -0.3125 7.734375 -0.421875 7.734375 -0.78125 L 7.734375 -6.03125 C 7.734375 -6.390625 7.75 -6.5 8.515625 -6.5 L 8.765625 -6.5 L 8.765625 -6.8125 L 7.078125 -6.8125 C 6.8125 -6.8125 6.8125 -6.796875 6.75 -6.625 L 4.5625 -1 Z M 2.40625 -6.59375 "
           id="path6744" />
      </symbol>
    </g>
    <g
       id="g3781">
      <symbol
         overflow="visible"
         id="symbol9476">
        <path
           style="stroke:none;"
           d=""
           id="path8406" />
      </symbol>
      <symbol
         overflow="visible"
         id="symbol6381">
        <path
           style="stroke:none;"
           d="M 7.578125 -6.921875 C 7.578125 -6.953125 7.5625 -7.03125 7.46875 -7.03125 C 7.4375 -7.03125 7.421875 -7.015625 7.3125 -6.90625 L 6.625 -6.140625 C 6.53125 -6.28125 6.078125 -7.03125 4.96875 -7.03125 C 2.734375 -7.03125 0.5 -4.828125 0.5 -2.515625 C 0.5 -0.875 1.671875 0.21875 3.203125 0.21875 C 4.0625 0.21875 4.828125 -0.171875 5.359375 -0.640625 C 6.28125 -1.453125 6.453125 -2.359375 6.453125 -2.390625 C 6.453125 -2.5 6.34375 -2.5 6.328125 -2.5 C 6.265625 -2.5 6.21875 -2.46875 6.203125 -2.390625 C 6.109375 -2.109375 5.875 -1.390625 5.1875 -0.8125 C 4.5 -0.265625 3.875 -0.09375 3.359375 -0.09375 C 2.46875 -0.09375 1.40625 -0.609375 1.40625 -2.15625 C 1.40625 -2.734375 1.609375 -4.34375 2.609375 -5.515625 C 3.21875 -6.21875 4.15625 -6.71875 5.046875 -6.71875 C 6.0625 -6.71875 6.65625 -5.953125 6.65625 -4.796875 C 6.65625 -4.390625 6.625 -4.390625 6.625 -4.28125 C 6.625 -4.1875 6.734375 -4.1875 6.765625 -4.1875 C 6.890625 -4.1875 6.890625 -4.203125 6.953125 -4.390625 Z M 7.578125 -6.921875 "
           id="path4042" />
      </symbol>
    </g>
    <g
       id="g5105">
      <symbol
         overflow="visible"
         id="symbol5379">
        <path
           style="stroke:none;"
           d=""
           id="path9316" />
      </symbol>
      <symbol
         overflow="visible"
         id="symbol5554">
        <path
           style="stroke:none;"
           d="M 7.578125 -6.921875 C 7.578125 -6.953125 7.5625 -7.03125 7.46875 -7.03125 C 7.4375 -7.03125 7.421875 -7.015625 7.3125 -6.90625 L 6.625 -6.140625 C 6.53125 -6.28125 6.078125 -7.03125 4.96875 -7.03125 C 2.734375 -7.03125 0.5 -4.828125 0.5 -2.515625 C 0.5 -0.875 1.671875 0.21875 3.203125 0.21875 C 4.0625 0.21875 4.828125 -0.171875 5.359375 -0.640625 C 6.28125 -1.453125 6.453125 -2.359375 6.453125 -2.390625 C 6.453125 -2.5 6.34375 -2.5 6.328125 -2.5 C 6.265625 -2.5 6.21875 -2.46875 6.203125 -2.390625 C 6.109375 -2.109375 5.875 -1.390625 5.1875 -0.8125 C 4.5 -0.265625 3.875 -0.09375 3.359375 -0.09375 C 2.46875 -0.09375 1.40625 -0.609375 1.40625 -2.15625 C 1.40625 -2.734375 1.609375 -4.34375 2.609375 -5.515625 C 3.21875 -6.21875 4.15625 -6.71875 5.046875 -6.71875 C 6.0625 -6.71875 6.65625 -5.953125 6.65625 -4.796875 C 6.65625 -4.390625 6.625 -4.390625 6.625 -4.28125 C 6.625 -4.1875 6.734375 -4.1875 6.765625 -4.1875 C 6.890625 -4.1875 6.890625 -4.203125 6.953125 -4.390625 Z M 7.578125 -6.921875 "
           id="path4916" />
      </symbol>
    </g>
    <g
       id="g9630">
      <symbol
         overflow="visible"
         id="symbol2400">
        <path
           style="stroke:none;"
           d=""
           id="path5993" />
      </symbol>
      <symbol
         overflow="visible"
         id="symbol4817">
        <path
           style="stroke:none;"
           d="M 7.578125 -6.921875 C 7.578125 -6.953125 7.5625 -7.03125 7.46875 -7.03125 C 7.4375 -7.03125 7.421875 -7.015625 7.3125 -6.90625 L 6.625 -6.140625 C 6.53125 -6.28125 6.078125 -7.03125 4.96875 -7.03125 C 2.734375 -7.03125 0.5 -4.828125 0.5 -2.515625 C 0.5 -0.875 1.671875 0.21875 3.203125 0.21875 C 4.0625 0.21875 4.828125 -0.171875 5.359375 -0.640625 C 6.28125 -1.453125 6.453125 -2.359375 6.453125 -2.390625 C 6.453125 -2.5 6.34375 -2.5 6.328125 -2.5 C 6.265625 -2.5 6.21875 -2.46875 6.203125 -2.390625 C 6.109375 -2.109375 5.875 -1.390625 5.1875 -0.8125 C 4.5 -0.265625 3.875 -0.09375 3.359375 -0.09375 C 2.46875 -0.09375 1.40625 -0.609375 1.40625 -2.15625 C 1.40625 -2.734375 1.609375 -4.34375 2.609375 -5.515625 C 3.21875 -6.21875 4.15625 -6.71875 5.046875 -6.71875 C 6.0625 -6.71875 6.65625 -5.953125 6.65625 -4.796875 C 6.65625 -4.390625 6.625 -4.390625 6.625 -4.28125 C 6.625 -4.1875 6.734375 -4.1875 6.765625 -4.1875 C 6.890625 -4.1875 6.890625 -4.203125 6.953125 -4.390625 Z M 7.578125 -6.921875 "
           id="path6517" />
      </symbol>
    </g>
    <linearGradient
       inkscape:collect="always"
       xlink:href="#linearGradient3666"
       id="linearGradient3668"
       x1="174.90799"
       y1="115.86159"
       x2="181.37208"
       y2="115.86159"
       gradientUnits="userSpaceOnUse" />
  </defs>
  <sodipodi:namedview
     id="base"
     pagecolor="#ffffff"
     bordercolor="#666666"
     borderopacity="1.0"
     inkscape:pageopacity="0.0"
     inkscape:pageshadow="2"
     inkscape:zoom="1.4"
     inkscape:cx="318.95508"
     inkscape:cy="234.67818"
     inkscape:document-units="mm"
     inkscape:current-layer="layer1"
     inkscape:document-rotation="0"
     showgrid="false"
     inkscape:window-width="1920"
     inkscape:window-height="1017"
     inkscape:window-x="0"
     inkscape:window-y="0"
     inkscape:window-maximized="1" />
  <metadata
     id="metadata5">
    <rdf:RDF>
      <cc:Work
         rdf:about="">
        <dc:format>image/svg+xml</dc:format>
        <dc:type
           rdf:resource="http://purl.org/dc/dcmitype/StillImage" />
        <dc:title></dc:title>
      </cc:Work>
    </rdf:RDF>
  </metadata>
  <g
     inkscape:label="Calque 1"
     inkscape:groupmode="layer"
     id="layer1">
    <rect
       style="fill:#24292e;fill-opacity:1;stroke-width:0.264999"
       id="rect837"
       width="192.42465"
       height="113.53735"
       x="4.5320973"
       y="8.3239841" />
    <text
       xml:space="preserve"
       style="font-style:normal;font-weight:normal;font-size:10.5833px;line-height:1.25;font-family:sans-serif;fill:#000000;fill-opacity:1;stroke:none;stroke-width:0.264583"
       x="74.844276"
       y="18.984423"
       id="text835"><tspan
         sodipodi:role="line"
         id="tspan833"
         x="74.844276"
         y="18.984423"
         style="fill:#d2d4cd;fill-opacity:1;stroke-width:0.264583">Fan curve</tspan></text>
    <path
       style="fill:none;stroke:#dedfdc;stroke-width:0.665;stroke-linecap:butt;stroke-linejoin:miter;stroke-miterlimit:4;stroke-dasharray:none;stroke-opacity:1;marker-start:url(#Arrow2Mstart);marker-end:url(#Arrow2Mend)"
       d="M 43.070691,24.867006 V 110.26414 H 177.0646"
       id="path839"
       sodipodi:nodetypes="ccc" />
    <path
       style="fill:none;stroke:#dedfdc;stroke-width:0.865;stroke-linecap:butt;stroke-linejoin:miter;stroke-miterlimit:4;stroke-dasharray:none;stroke-opacity:1"
       d="m 41.943148,105.97008 h 2.156949"
       id="path1275" />
    <path
       style="fill:none;stroke:#dedfdc;stroke-width:0.865;stroke-linecap:butt;stroke-linejoin:miter;stroke-miterlimit:4;stroke-dasharray:none;stroke-opacity:1"
       d="m 41.943148,86.27566 h 2.156949"
       id="path1291" />
    <path
       style="fill:none;stroke:#dedfdc;stroke-width:0.865;stroke-linecap:butt;stroke-linejoin:miter;stroke-miterlimit:4;stroke-dasharray:none;stroke-opacity:1"
       d="m 41.943148,73.872683 h 2.156949"
       id="path1293" />
    <path
       style="fill:none;stroke:#dedfdc;stroke-width:0.865;stroke-linecap:butt;stroke-linejoin:miter;stroke-miterlimit:4;stroke-dasharray:none;stroke-opacity:1"
       d="m 41.943148,56.367834 h 2.156949"
       id="path1295" />
    <path
       style="fill:none;stroke:#dedfdc;stroke-width:0.865;stroke-linecap:butt;stroke-linejoin:miter;stroke-miterlimit:4;stroke-dasharray:none;stroke-opacity:1"
       d="m 41.943148,34.278686 h 2.156949"
       id="path1297" />
    <g
       inkscape:label=""
       transform="matrix(0.67713243,0,0,0.67713243,-25.261369,52.75988)"
       id="g1329"
       style="fill:#dedfdc;fill-opacity:1">
      <g
         id="g9758"
         style="fill:#dedfdc;fill-opacity:1">
        <g
           style="fill:#dedfdc;fill-opacity:1"
           id="g4340">
          <use
             xlink:href="#symbol1642"
             x="91.925003"
             y="81.962997"
             id="use9439"
             width="100%"
             height="100%"
             style="fill:#dedfdc;fill-opacity:1" />
        </g>
      </g>
    </g>
    <g
       inkscape:label=""
       transform="matrix(0.71383426,0,0,0.71383426,-42.164796,29.670589)"
       id="g1386"
       style="fill:#dedfdc;fill-opacity:1">
      <g
         id="g4669"
         style="fill:#dedfdc;fill-opacity:1">
        <g
           style="fill:#dedfdc;fill-opacity:1"
           id="g8777">
          <use
             xlink:href="#symbol2165"
             x="91.925003"
             y="81.962997"
             id="use3225"
             width="100%"
             height="100%"
             style="fill:#dedfdc;fill-opacity:1" />
          <use
             xlink:href="#symbol5411"
             x="96.906303"
             y="81.962997"
             id="use4303"
             width="100%"
             height="100%"
             style="fill:#dedfdc;fill-opacity:1" />
          <use
             xlink:href="#symbol5411"
             x="101.8876"
             y="81.962997"
             id="use9072"
             width="100%"
             height="100%"
             style="fill:#dedfdc;fill-opacity:1" />
          <use
             xlink:href="#symbol5411"
             x="106.8689"
             y="81.962997"
             id="use5715"
             width="100%"
             height="100%"
             style="fill:#dedfdc;fill-opacity:1" />
        </g>
      </g>
    </g>
    <g
       inkscape:label=""
       transform="matrix(0.71133538,0,0,0.71133538,-41.882283,17.418988)"
       id="g1462"
       style="fill:#dedfdc;fill-opacity:1">
      <g
         id="g2756"
         style="fill:#dedfdc;fill-opacity:1">
        <g
           style="fill:#dedfdc;fill-opacity:1"
           id="g3563">
          <use
             xlink:href="#symbol3981"
             x="91.925003"
             y="81.962997"
             id="use4407"
             width="100%"
             height="100%"
             style="fill:#dedfdc;fill-opacity:1" />
          <use
             xlink:href="#symbol6387"
             x="96.906303"
             y="81.962997"
             id="use9458"
             width="100%"
             height="100%"
             style="fill:#dedfdc;fill-opacity:1" />
          <use
             xlink:href="#symbol6387"
             x="101.8876"
             y="81.962997"
             id="use5290"
             width="100%"
             height="100%"
             style="fill:#dedfdc;fill-opacity:1" />
          <use
             xlink:href="#symbol6387"
             x="106.8689"
             y="81.962997"
             id="use6469"
             width="100%"
             height="100%"
             style="fill:#dedfdc;fill-opacity:1" />
        </g>
      </g>
    </g>
    <g
       inkscape:label=""
       transform="matrix(0.74651343,0,0,0.74651343,-45.41433,-2.3453978)"
       id="g1554"
       style="fill:#dedfdc;fill-opacity:1">
      <g
         id="g2278"
         style="fill:#dedfdc;fill-opacity:1">
        <g
           style="fill:#dedfdc;fill-opacity:1"
           id="g5234">
          <use
             xlink:href="#symbol4896"
             x="91.925003"
             y="81.962997"
             id="use4111"
             width="100%"
             height="100%"
             style="fill:#dedfdc;fill-opacity:1" />
          <use
             xlink:href="#symbol8643"
             x="96.906303"
             y="81.962997"
             id="use7168"
             width="100%"
             height="100%"
             style="fill:#dedfdc;fill-opacity:1" />
          <use
             xlink:href="#symbol1833"
             x="101.8876"
             y="81.962997"
             id="use2446"
             width="100%"
             height="100%"
             style="fill:#dedfdc;fill-opacity:1" />
          <use
             xlink:href="#symbol1833"
             x="106.8689"
             y="81.962997"
             id="use5578"
             width="100%"
             height="100%"
             style="fill:#dedfdc;fill-opacity:1" />
        </g>
      </g>
    </g>
    <g
       inkscape:label=""
       transform="matrix(0.74467544,0,0,0.74467544,-45.308623,-24.34486)"
       id="g1664"
       style="fill:#dedfdc;fill-opacity:1;stroke-width:1;stroke-miterlimit:4;stroke-dasharray:none">
      <g
         id="g5261"
         style="fill:#dedfdc;fill-opacity:1;stroke-width:1;stroke-miterlimit:4;stroke-dasharray:none">
        <g
           style="fill:#dedfdc;fill-opacity:1;stroke-width:1;stroke-miterlimit:4;stroke-dasharray:none"
           id="g1404">
          <use
             xlink:href="#symbol2358"
             x="91.925003"
             y="81.962997"
             id="use8064"
             width="100%"
             height="100%"
             style="fill:#dedfdc;fill-opacity:1;stroke-width:1;stroke-miterlimit:4;stroke-dasharray:none" />
          <use
             xlink:href="#symbol1646"
             x="96.906303"
             y="81.962997"
             id="use867"
             width="100%"
             height="100%"
             style="fill:#dedfdc;fill-opacity:1;stroke-width:1;stroke-miterlimit:4;stroke-dasharray:none" />
          <use
             xlink:href="#symbol6511"
             x="101.8876"
             y="81.962997"
             id="use4535"
             width="100%"
             height="100%"
             style="fill:#dedfdc;fill-opacity:1;stroke-width:1;stroke-miterlimit:4;stroke-dasharray:none" />
          <use
             xlink:href="#symbol6511"
             x="106.8689"
             y="81.962997"
             id="use9748"
             width="100%"
             height="100%"
             style="fill:#dedfdc;fill-opacity:1;stroke-width:1;stroke-miterlimit:4;stroke-dasharray:none" />
        </g>
      </g>
    </g>
    <g
       inkscape:label=""
       transform="matrix(0.61291711,0,0,0.61291711,17.194724,67.720846)"
       id="g1897"
       style="fill:#dedfdc;fill-opacity:1">
      <g
         id="g5127"
         style="fill:#dedfdc;fill-opacity:1">
        <g
           style="fill:#dedfdc;fill-opacity:1"
           id="g7870">
          <use
             xlink:href="#symbol9915"
             x="91.925003"
             y="81.962997"
             id="use647"
             width="100%"
             height="100%"
             style="fill:#dedfdc;fill-opacity:1" />
        </g>
        <g
           style="fill:#dedfdc;fill-opacity:1"
           id="g3597">
          <use
             xlink:href="#symbol7946"
             x="95.523003"
             y="83.457001"
             id="use7259"
             width="100%"
             height="100%"
             style="fill:#dedfdc;fill-opacity:1" />
        </g>
      </g>
    </g>
    <g
       inkscape:label=""
       transform="matrix(0.61291711,0,0,0.61291711,44.22869,67.720846)"
       id="g2036"
       style="fill:#dedfdc;fill-opacity:1">
      <g
         id="g6685"
         style="fill:#dedfdc;fill-opacity:1">
        <g
           style="fill:#dedfdc;fill-opacity:1"
           id="g379">
          <use
             xlink:href="#symbol687"
             x="91.925003"
             y="81.962997"
             id="use9368"
             width="100%"
             height="100%"
             style="fill:#dedfdc;fill-opacity:1" />
        </g>
        <g
           style="fill:#dedfdc;fill-opacity:1"
           id="g1480">
          <use
             xlink:href="#symbol1441"
             x="95.523003"
             y="83.457001"
             id="use9971"
             width="100%"
             height="100%"
             style="fill:#dedfdc;fill-opacity:1" />
        </g>
      </g>
    </g>
    <g
       inkscape:label=""
       transform="matrix(0.61291711,0,0,0.61291711,69.864271,67.67775)"
       id="g2190"
       style="fill:#dedfdc;fill-opacity:1">
      <g
         id="g1689"
         style="fill:#dedfdc;fill-opacity:1">
        <g
           style="fill:#dedfdc;fill-opacity:1"
           id="g7802">
          <use
             xlink:href="#symbol4897"
             x="91.925003"
             y="81.962997"
             id="use4085"
             width="100%"
             height="100%"
             style="fill:#dedfdc;fill-opacity:1" />
        </g>
        <g
           style="fill:#dedfdc;fill-opacity:1"
           id="g8338">
          <use
             xlink:href="#symbol8811"
             x="95.523003"
             y="83.457001"
             id="use1982"
             width="100%"
             height="100%"
             style="fill:#dedfdc;fill-opacity:1" />
        </g>
      </g>
    </g>
    <g
       inkscape:label=""
       transform="matrix(0.61291711,0,0,0.61291711,92.522767,67.720846)"
       id="g2359"
       style="fill:#dedfdc;fill-opacity:1">
      <g
         id="g6890"
         style="fill:#dedfdc;fill-opacity:1">
        <g
           style="fill:#dedfdc;fill-opacity:1"
           id="g7180">
          <use
             xlink:href="#symbol751"
             x="91.925003"
             y="81.962997"
             id="use6237"
             width="100%"
             height="100%"
             style="fill:#dedfdc;fill-opacity:1" />
        </g>
        <g
           style="fill:#dedfdc;fill-opacity:1"
           id="g9886">
          <use
             xlink:href="#symbol4045"
             x="95.523003"
             y="83.457001"
             id="use4965"
             width="100%"
             height="100%"
             style="fill:#dedfdc;fill-opacity:1" />
        </g>
      </g>
    </g>
    <g
       inkscape:label=""
       transform="matrix(0.47585476,0,0,0.47585476,2.3601291,-13.76124)"
       id="g2543"
       style="fill:#dedfdc;fill-opacity:1">
      <g
         id="g409"
         style="fill:#dedfdc;fill-opacity:1">
        <g
           style="fill:#dedfdc;fill-opacity:1"
           id="g5040">
          <use
             xlink:href="#symbol4555"
             x="91.925003"
             y="81.962997"
             id="use8422"
             width="100%"
             height="100%"
             style="fill:#dedfdc;fill-opacity:1" />
          <use
             xlink:href="#symbol197"
             x="99.258469"
             y="81.962997"
             id="use9175"
             width="100%"
             height="100%"
             style="fill:#dedfdc;fill-opacity:1" />
          <use
             xlink:href="#symbol6110"
             x="106.03902"
             y="81.962997"
             id="use967"
             width="100%"
             height="100%"
             style="fill:#dedfdc;fill-opacity:1" />
        </g>
      </g>
    </g>
    <rect
       style="fill:#dedfdc;fill-opacity:1;stroke:#dedfdc;stroke-width:1;stroke-miterlimit:4;stroke-dasharray:none;stroke-opacity:1"
       id="rect3152"
       width="32.0443"
       height="3.9075174"
       x="43.49868"
       y="106.03216" />
    <rect
       style="fill:#dedfdc;fill-opacity:0.456668;stroke:none;stroke-width:0.80201;stroke-miterlimit:4;stroke-dasharray:none;stroke-opacity:1"
       id="rect3164"
       width="5.6290073"
       height="19.188084"
       x="70.123451"
       y="86.573463" />
    <rect
       style="fill:#dedfdc;fill-opacity:1;stroke:#dedfdc;stroke-width:1;stroke-miterlimit:4;stroke-dasharray:none;stroke-opacity:1"
       id="rect3154"
       width="25.016411"
       height="22.844831"
       x="75.542984"
       y="87.094841" />
    <rect
       style="fill:#dedfdc;fill-opacity:1;stroke:#dedfdc;stroke-width:1;stroke-miterlimit:4;stroke-dasharray:none;stroke-opacity:1"
       id="rect3158"
       width="24.755224"
       height="34.276768"
       x="100.55939"
       y="75.66291" />
    <rect
       style="fill:#dedfdc;fill-opacity:1;stroke:#dedfdc;stroke-width:1;stroke-miterlimit:4;stroke-dasharray:none;stroke-opacity:1"
       id="rect3160"
       width="23.599646"
       height="52.13736"
       x="125.31462"
       y="57.802311" />
    <rect
       style="fill:#dedfdc;fill-opacity:1;stroke:#dedfdc;stroke-width:1;stroke-miterlimit:4;stroke-dasharray:none;stroke-opacity:1"
       id="rect3162"
       width="21.735491"
       height="75.91391"
       x="148.91426"
       y="34.025764" />
    <rect
       style="fill:#dedfdc;fill-opacity:0.456668;stroke:none;stroke-width:0.80201;stroke-miterlimit:4;stroke-dasharray:none;stroke-opacity:1"
       id="rect3168"
       width="5.6290073"
       height="19.188084"
       x="94.657944"
       y="75.213135" />
    <rect
       style="fill:#dedfdc;fill-opacity:0.456668;stroke:none;stroke-width:0.80201;stroke-miterlimit:4;stroke-dasharray:none;stroke-opacity:1"
       id="rect3170"
       width="5.6290073"
       height="19.188084"
       x="119.89116"
       y="57.253937" />
    <rect
       style="fill:#dedfdc;fill-opacity:0.456668;stroke:none;stroke-width:0.902198;stroke-miterlimit:4;stroke-dasharray:none;stroke-opacity:1"
       id="rect3172"
       width="5.6290073"
       height="24.281528"
       x="143.28526"
       y="33.520779" />
    <text
       xml:space="preserve"
       style="font-style:normal;font-weight:normal;font-size:6.16315px;line-height:1.25;font-family:sans-serif;fill:#dedfdc;fill-opacity:1;stroke:none;stroke-width:0.154079;"
       x="174.32117"
       y="118.10506"
       id="text3660"><tspan
         sodipodi:role="line"
         id="tspan3658"
         x="174.32117"
         y="118.10506"
         style="stroke-width:0.154079;fill-opacity:1;fill:#dedfdc;">C</tspan></text>
  </g>
</svg>
