<?xml version="1.0" encoding="UTF-8" standalone="no"?>
<svg
   xmlns:dc="http://purl.org/dc/elements/1.1/"
   xmlns:cc="http://creativecommons.org/ns#"
   xmlns:rdf="http://www.w3.org/1999/02/22-rdf-syntax-ns#"
   xmlns:svg="http://www.w3.org/2000/svg"
   xmlns="http://www.w3.org/2000/svg"
   xmlns:xlink="http://www.w3.org/1999/xlink"
   xmlns:sodipodi="http://sodipodi.sourceforge.net/DTD/sodipodi-0.dtd"
   xmlns:inkscape="http://www.inkscape.org/namespaces/inkscape"
   width="192.42465mm"
   height="113.53735mm"
   viewBox="0 0 192.42465 113.53735"
   version="1.1"
   id="svg8"
   sodipodi:docname="fan_curve.svg"
   inkscape:version="1.0.2 (e86c870879, 2021-01-15, custom)">
  <defs
     id="defs2">
    <linearGradient
       inkscape:collect="always"
       id="linearGradient3666">
      <stop
         style="stop-color:#000000;stop-opacity:1;"
         offset="0"
         id="stop3662" />
      <stop
         style="stop-color:#000000;stop-opacity:0;"
         offset="1"
         id="stop3664" />
    </linearGradient>
    <marker
       style="overflow:visible"
       id="Arrow2Mend"
       refX="0"
       refY="0"
       orient="auto"
       inkscape:stockid="Arrow2Mend"
       inkscape:isstock="true">
      <path
         transform="scale(-0.6)"
         d="M 8.7185878,4.0337352 -2.2072895,0.01601326 8.7185884,-4.0017078 c -1.7454984,2.3720609 -1.7354408,5.6174519 -6e-7,8.035443 z"
         style="fill:#dedfdc;fill-opacity:1;fill-rule:evenodd;stroke:#dedfdc;stroke-width:0.625;stroke-linejoin:round;stroke-opacity:1"
         id="path868" />
    </marker>
    <marker
       style="overflow:visible"
       id="Arrow1Send"
       refX="0"
       refY="0"
       orient="auto"
       inkscape:stockid="Arrow1Send"
       inkscape:isstock="true">
      <path
         transform="matrix(-0.2,0,0,-0.2,-1.2,0)"
         style="fill:#dedfdc;fill-opacity:1;fill-rule:evenodd;stroke:#dedfdc;stroke-width:1pt;stroke-opacity:1"
         d="M 0,0 5,-5 -12.5,0 5,5 Z"
         id="path856" />
    </marker>
    <marker
       style="overflow:visible"
       id="Arrow2Mstart"
       refX="0"
       refY="0"
       orient="auto"
       inkscape:stockid="Arrow2Mstart"
       inkscape:isstock="true">
      <path
         transform="scale(0.6)"
         d="M 8.7185878,4.0337352 -2.2072895,0.01601326 8.7185884,-4.0017078 c -1.7454984,2.3720609 -1.7354408,5.6174519 -6e-7,8.035443 z"
         style="fill:#dedfdc;fill-opacity:1;fill-rule:evenodd;stroke:#dedfdc;stroke-width:0.625;stroke-linejoin:round;stroke-opacity:1"
         id="path865" />
    </marker>
    <marker
       style="overflow:visible"
       id="Arrow2Lstart"
       refX="0"
       refY="0"
       orient="auto"
       inkscape:stockid="Arrow2Lstart"
       inkscape:isstock="true">
      <path
         transform="matrix(1.1,0,0,1.1,1.1,0)"
         d="M 8.7185878,4.0337352 -2.2072895,0.01601326 8.7185884,-4.0017078 c -1.7454984,2.3720609 -1.7354408,5.6174519 -6e-7,8.035443 z"
         style="fill:#dedfdc;fill-opacity:1;fill-rule:evenodd;stroke:#dedfdc;stroke-width:0.625;stroke-linejoin:round;stroke-opacity:1"
         id="path859" />
    </marker>
    <marker
       style="overflow:visible"
       id="Arrow1Lstart"
       refX="0"
       refY="0"
       orient="auto"
       inkscape:stockid="Arrow1Lstart"
       inkscape:isstock="true">
      <path
         transform="matrix(0.8,0,0,0.8,10,0)"
         style="fill:#dedfdc;fill-opacity:1;fill-rule:evenodd;stroke:#dedfdc;stroke-width:1pt;stroke-opacity:1"
         d="M 0,0 5,-5 -12.5,0 5,5 Z"
         id="path841" />
    </marker>
    <g
       id="g3691">
      <symbol
         overflow="visible"
         id="symbol4841">
        <path
           style="stroke:none"
           d=""
           id="path4280" />
      </symbol>
      <symbol
         overflow="visible"
         id="symbol1642">
        <path
           style="stroke:none"
           d="m 4.578125,-3.1875 c 0,-0.796875 -0.046875,-1.59375 -0.390625,-2.328125 -0.453125,-0.96875 -1.28125,-1.125 -1.6875,-1.125 -0.609375,0 -1.328125,0.265625 -1.75,1.1875 -0.3125,0.6875 -0.359375,1.46875 -0.359375,2.265625 0,0.75 0.03125,1.640625 0.453125,2.40625 0.421875,0.796875 1.15625,1 1.640625,1 0.53125,0 1.296875,-0.203125 1.734375,-1.15625 0.3125,-0.6875 0.359375,-1.46875 0.359375,-2.25 z M 2.484375,0 C 2.09375,0 1.5,-0.25 1.328125,-1.203125 1.21875,-1.796875 1.21875,-2.71875 1.21875,-3.3125 c 0,-0.640625 0,-1.296875 0.078125,-1.828125 0.1875,-1.1875 0.9375,-1.28125 1.1875,-1.28125 0.328125,0 0.984375,0.1875 1.171875,1.171875 0.109375,0.5625 0.109375,1.3125 0.109375,1.9375 0,0.75 0,1.421875 -0.109375,2.0625 C 3.5,-0.296875 2.9375,0 2.484375,0 Z m 0,0"
           id="path3525" />
      </symbol>
    </g>
    <g
       id="g7806">
      <symbol
         overflow="visible"
         id="symbol4036">
        <path
           style="stroke:none"
           d=""
           id="path8667" />
      </symbol>
      <symbol
         overflow="visible"
         id="symbol2165">
        <path
           style="stroke:none"
           d="m 1.265625,-0.765625 1.0625,-1.03125 c 1.546875,-1.375 2.140625,-1.90625 2.140625,-2.90625 0,-1.140625 -0.890625,-1.9375 -2.109375,-1.9375 -1.125,0 -1.859375,0.921875 -1.859375,1.8125 0,0.546875 0.5,0.546875 0.53125,0.546875 0.171875,0 0.515625,-0.109375 0.515625,-0.53125 0,-0.25 -0.1875,-0.515625 -0.53125,-0.515625 -0.078125,0 -0.09375,0 -0.125,0.015625 0.21875,-0.65625 0.765625,-1.015625 1.34375,-1.015625 0.90625,0 1.328125,0.8125 1.328125,1.625 C 3.5625,-3.90625 3.078125,-3.125 2.515625,-2.5 l -1.90625,2.125 C 0.5,-0.265625 0.5,-0.234375 0.5,0 H 4.203125 L 4.46875,-1.734375 H 4.234375 C 4.171875,-1.4375 4.109375,-1 4,-0.84375 3.9375,-0.765625 3.28125,-0.765625 3.0625,-0.765625 Z m 0,0"
           id="path5325" />
      </symbol>
      <symbol
         overflow="visible"
         id="symbol5411">
        <path
           style="stroke:none"
           d="m 4.578125,-3.1875 c 0,-0.796875 -0.046875,-1.59375 -0.390625,-2.328125 -0.453125,-0.96875 -1.28125,-1.125 -1.6875,-1.125 -0.609375,0 -1.328125,0.265625 -1.75,1.1875 -0.3125,0.6875 -0.359375,1.46875 -0.359375,2.265625 0,0.75 0.03125,1.640625 0.453125,2.40625 0.421875,0.796875 1.15625,1 1.640625,1 0.53125,0 1.296875,-0.203125 1.734375,-1.15625 0.3125,-0.6875 0.359375,-1.46875 0.359375,-2.25 z M 2.484375,0 C 2.09375,0 1.5,-0.25 1.328125,-1.203125 1.21875,-1.796875 1.21875,-2.71875 1.21875,-3.3125 c 0,-0.640625 0,-1.296875 0.078125,-1.828125 0.1875,-1.1875 0.9375,-1.28125 1.1875,-1.28125 0.328125,0 0.984375,0.1875 1.171875,1.171875 0.109375,0.5625 0.109375,1.3125 0.109375,1.9375 0,0.75 0,1.421875 -0.109375,2.0625 C 3.5,-0.296875 2.9375,0 2.484375,0 Z m 0,0"
           id="path5143" />
      </symbol>
    </g>
    <g
       id="g3571">
      <symbol
         overflow="visible"
         id="symbol6993">
        <path
           style="stroke:none"
           d=""
           id="path9097" />
      </symbol>
      <symbol
         overflow="visible"
         id="symbol3981">
        <path
           style="stroke:none"
           d="m 2.890625,-3.515625 c 0.8125,-0.265625 1.390625,-0.953125 1.390625,-1.75 0,-0.8125 -0.875,-1.375 -1.828125,-1.375 -1,0 -1.765625,0.59375 -1.765625,1.359375 0,0.328125 0.21875,0.515625 0.515625,0.515625 0.296875,0 0.5,-0.21875 0.5,-0.515625 0,-0.484375 -0.46875,-0.484375 -0.609375,-0.484375 0.296875,-0.5 0.953125,-0.625 1.3125,-0.625 0.421875,0 0.96875,0.21875 0.96875,1.109375 0,0.125 -0.03125,0.703125 -0.28125,1.140625 C 2.796875,-3.65625 2.453125,-3.625 2.203125,-3.625 2.125,-3.609375 1.890625,-3.59375 1.8125,-3.59375 c -0.078125,0.015625 -0.140625,0.03125 -0.140625,0.125 0,0.109375 0.0625,0.109375 0.234375,0.109375 h 0.4375 c 0.8125,0 1.1875,0.671875 1.1875,1.65625 0,1.359375 -0.6875,1.640625 -1.125,1.640625 -0.4375,0 -1.1875,-0.171875 -1.53125,-0.75 0.34375,0.046875 0.65625,-0.171875 0.65625,-0.546875 0,-0.359375 -0.265625,-0.5625 -0.546875,-0.5625 -0.25,0 -0.5625,0.140625 -0.5625,0.578125 0,0.90625 0.921875,1.5625 2.015625,1.5625 1.21875,0 2.125,-0.90625 2.125,-1.921875 0,-0.8125 -0.640625,-1.59375 -1.671875,-1.8125 z m 0,0"
           id="path2160" />
      </symbol>
      <symbol
         overflow="visible"
         id="symbol6387">
        <path
           style="stroke:none"
           d="m 4.578125,-3.1875 c 0,-0.796875 -0.046875,-1.59375 -0.390625,-2.328125 -0.453125,-0.96875 -1.28125,-1.125 -1.6875,-1.125 -0.609375,0 -1.328125,0.265625 -1.75,1.1875 -0.3125,0.6875 -0.359375,1.46875 -0.359375,2.265625 0,0.75 0.03125,1.640625 0.453125,2.40625 0.421875,0.796875 1.15625,1 1.640625,1 0.53125,0 1.296875,-0.203125 1.734375,-1.15625 0.3125,-0.6875 0.359375,-1.46875 0.359375,-2.25 z M 2.484375,0 C 2.09375,0 1.5,-0.25 1.328125,-1.203125 1.21875,-1.796875 1.21875,-2.71875 1.21875,-3.3125 c 0,-0.640625 0,-1.296875 0.078125,-1.828125 0.1875,-1.1875 0.9375,-1.28125 1.1875,-1.28125 0.328125,0 0.984375,0.1875 1.171875,1.171875 0.109375,0.5625 0.109375,1.3125 0.109375,1.9375 0,0.75 0,1.421875 -0.109375,2.0625 C 3.5,-0.296875 2.9375,0 2.484375,0 Z m 0,0"
           id="path5094" />
      </symbol>
    </g>
    <g
       id="g484">
      <symbol
         overflow="visible"
         id="symbol4935">
        <path
           style="stroke:none"
           d=""
           id="path6451" />
      </symbol>
      <symbol
         overflow="visible"
         id="symbol4896">
        <path
           style="stroke:none"
           d="m 2.9375,-1.640625 v 0.859375 c 0,0.359375 -0.03125,0.46875 -0.765625,0.46875 H 1.96875 V 0 C 2.375,-0.03125 2.890625,-0.03125 3.3125,-0.03125 c 0.421875,0 0.9375,0 1.359375,0.03125 v -0.3125 h -0.21875 c -0.734375,0 -0.75,-0.109375 -0.75,-0.46875 V -1.640625 H 4.6875 v -0.3125 H 3.703125 v -4.53125 c 0,-0.203125 0,-0.265625 -0.171875,-0.265625 -0.078125,0 -0.109375,0 -0.1875,0.125 l -3.0625,4.671875 v 0.3125 z m 0.046875,-0.3125 H 0.5625 l 2.421875,-3.71875 z m 0,0"
           id="path4565" />
      </symbol>
      <symbol
         overflow="visible"
         id="symbol8643">
        <path
           style="stroke:none"
           d="m 1.625,-4.5625 c -0.453125,-0.296875 -0.5,-0.625 -0.5,-0.796875 0,-0.609375 0.65625,-1.03125 1.359375,-1.03125 0.71875,0 1.359375,0.515625 1.359375,1.234375 0,0.578125 -0.390625,1.046875 -0.984375,1.390625 z m 1.453125,0.953125 C 3.796875,-3.984375 4.28125,-4.5 4.28125,-5.15625 c 0,-0.921875 -0.875,-1.484375 -1.78125,-1.484375 -1,0 -1.8125,0.734375 -1.8125,1.671875 0,0.171875 0.015625,0.625 0.4375,1.09375 0.109375,0.109375 0.484375,0.359375 0.734375,0.53125 C 1.28125,-3.046875 0.421875,-2.5 0.421875,-1.5 c 0,1.046875 1.015625,1.71875 2.0625,1.71875 1.125,0 2.078125,-0.828125 2.078125,-1.890625 0,-0.359375 -0.109375,-0.8125 -0.5,-1.234375 C 3.875,-3.109375 3.71875,-3.203125 3.078125,-3.609375 Z m -1,0.421875 1.234375,0.78125 c 0.28125,0.1875 0.75,0.484375 0.75,1.09375 0,0.734375 -0.75,1.25 -1.5625,1.25 -0.859375,0 -1.578125,-0.609375 -1.578125,-1.4375 0,-0.578125 0.3125,-1.21875 1.15625,-1.6875 z m 0,0"
           id="path5737" />
      </symbol>
      <symbol
         overflow="visible"
         id="symbol1833">
        <path
           style="stroke:none"
           d="m 4.578125,-3.1875 c 0,-0.796875 -0.046875,-1.59375 -0.390625,-2.328125 -0.453125,-0.96875 -1.28125,-1.125 -1.6875,-1.125 -0.609375,0 -1.328125,0.265625 -1.75,1.1875 -0.3125,0.6875 -0.359375,1.46875 -0.359375,2.265625 0,0.75 0.03125,1.640625 0.453125,2.40625 0.421875,0.796875 1.15625,1 1.640625,1 0.53125,0 1.296875,-0.203125 1.734375,-1.15625 0.3125,-0.6875 0.359375,-1.46875 0.359375,-2.25 z M 2.484375,0 C 2.09375,0 1.5,-0.25 1.328125,-1.203125 1.21875,-1.796875 1.21875,-2.71875 1.21875,-3.3125 c 0,-0.640625 0,-1.296875 0.078125,-1.828125 0.1875,-1.1875 0.9375,-1.28125 1.1875,-1.28125 0.328125,0 0.984375,0.1875 1.171875,1.171875 0.109375,0.5625 0.109375,1.3125 0.109375,1.9375 0,0.75 0,1.421875 -0.109375,2.0625 C 3.5,-0.296875 2.9375,0 2.484375,0 Z m 0,0"
           id="path3421" />
      </symbol>
    </g>
    <g
       id="g1693">
      <symbol
         overflow="visible"
         id="symbol5265">
        <path
           style="stroke:none"
           d=""
           id="path3087" />
      </symbol>
      <symbol
         overflow="visible"
         id="symbol2358">
        <path
           style="stroke:none"
           d="m 4.46875,-2 c 0,-1.1875 -0.8125,-2.1875 -1.890625,-2.1875 -0.46875,0 -0.90625,0.15625 -1.265625,0.515625 V -5.625 c 0.203125,0.0625 0.53125,0.125 0.84375,0.125 1.234375,0 1.9375,-0.90625 1.9375,-1.03125 0,-0.0625 -0.03125,-0.109375 -0.109375,-0.109375 0,0 -0.03125,0 -0.078125,0.03125 C 3.703125,-6.515625 3.21875,-6.3125 2.546875,-6.3125 2.15625,-6.3125 1.6875,-6.390625 1.21875,-6.59375 1.140625,-6.625 1.125,-6.625 1.109375,-6.625 1,-6.625 1,-6.546875 1,-6.390625 V -3.4375 c 0,0.171875 0,0.25 0.140625,0.25 0.078125,0 0.09375,-0.015625 0.140625,-0.078125 C 1.390625,-3.421875 1.75,-3.96875 2.5625,-3.96875 c 0.515625,0 0.765625,0.453125 0.84375,0.640625 0.15625,0.375 0.1875,0.75 0.1875,1.25 0,0.359375 0,0.953125 -0.25,1.375 C 3.109375,-0.3125 2.734375,-0.0625 2.28125,-0.0625 c -0.71875,0 -1.296875,-0.53125 -1.46875,-1.109375 0.03125,0 0.0625,0.015625 0.171875,0.015625 0.328125,0 0.5,-0.25 0.5,-0.484375 0,-0.25 -0.171875,-0.5 -0.5,-0.5 C 0.84375,-2.140625 0.5,-2.0625 0.5,-1.609375 0.5,-0.75 1.1875,0.21875 2.296875,0.21875 3.453125,0.21875 4.46875,-0.734375 4.46875,-2 Z m 0,0"
           id="path4614" />
      </symbol>
      <symbol
         overflow="visible"
         id="symbol1646">
        <path
           style="stroke:none"
           d="m 2.9375,-1.640625 v 0.859375 c 0,0.359375 -0.03125,0.46875 -0.765625,0.46875 H 1.96875 V 0 C 2.375,-0.03125 2.890625,-0.03125 3.3125,-0.03125 c 0.421875,0 0.9375,0 1.359375,0.03125 v -0.3125 h -0.21875 c -0.734375,0 -0.75,-0.109375 -0.75,-0.46875 V -1.640625 H 4.6875 v -0.3125 H 3.703125 v -4.53125 c 0,-0.203125 0,-0.265625 -0.171875,-0.265625 -0.078125,0 -0.109375,0 -0.1875,0.125 l -3.0625,4.671875 v 0.3125 z m 0.046875,-0.3125 H 0.5625 l 2.421875,-3.71875 z m 0,0"
           id="path5518" />
      </symbol>
      <symbol
         overflow="visible"
         id="symbol6511">
        <path
           style="stroke:none"
           d="m 4.578125,-3.1875 c 0,-0.796875 -0.046875,-1.59375 -0.390625,-2.328125 -0.453125,-0.96875 -1.28125,-1.125 -1.6875,-1.125 -0.609375,0 -1.328125,0.265625 -1.75,1.1875 -0.3125,0.6875 -0.359375,1.46875 -0.359375,2.265625 0,0.75 0.03125,1.640625 0.453125,2.40625 0.421875,0.796875 1.15625,1 1.640625,1 0.53125,0 1.296875,-0.203125 1.734375,-1.15625 0.3125,-0.6875 0.359375,-1.46875 0.359375,-2.25 z M 2.484375,0 C 2.09375,0 1.5,-0.25 1.328125,-1.203125 1.21875,-1.796875 1.21875,-2.71875 1.21875,-3.3125 c 0,-0.640625 0,-1.296875 0.078125,-1.828125 0.1875,-1.1875 0.9375,-1.28125 1.1875,-1.28125 0.328125,0 0.984375,0.1875 1.171875,1.171875 0.109375,0.5625 0.109375,1.3125 0.109375,1.9375 0,0.75 0,1.421875 -0.109375,2.0625 C 3.5,-0.296875 2.9375,0 2.484375,0 Z m 0,0"
           id="path1815" />
      </symbol>
    </g>
    <g
       id="g6033">
      <symbol
         overflow="visible"
         id="symbol6593">
        <path
           style="stroke:none"
           d=""
           id="path6704" />
      </symbol>
      <symbol
         overflow="visible"
         id="symbol9915">
        <path
           style="stroke:none"
           d="m 2.046875,-3.984375 h 0.9375 c 0.203125,0 0.3125,0 0.3125,-0.203125 0,-0.109375 -0.109375,-0.109375 -0.28125,-0.109375 h -0.875 C 2.5,-5.71875 2.546875,-5.90625 2.546875,-5.96875 c 0,-0.171875 -0.125,-0.265625 -0.296875,-0.265625 -0.03125,0 -0.3125,0 -0.390625,0.359375 L 1.46875,-4.296875 h -0.9375 c -0.203125,0 -0.296875,0 -0.296875,0.1875 0,0.125 0.078125,0.125 0.28125,0.125 h 0.875 C 0.671875,-1.15625 0.625,-0.984375 0.625,-0.8125 0.625,-0.265625 1,0.109375 1.546875,0.109375 2.5625,0.109375 3.125,-1.34375 3.125,-1.421875 3.125,-1.53125 3.046875,-1.53125 3.015625,-1.53125 2.921875,-1.53125 2.90625,-1.5 2.859375,-1.390625 2.4375,-0.34375 1.90625,-0.109375 1.5625,-0.109375 c -0.203125,0 -0.3125,-0.125 -0.3125,-0.453125 0,-0.25 0.03125,-0.3125 0.0625,-0.484375 z m 0,0"
           id="path6802" />
      </symbol>
      <symbol
         overflow="visible"
         id="symbol1624">
        <path
           style="stroke:none"
           d=""
           id="path4025" />
      </symbol>
      <symbol
         overflow="visible"
         id="symbol7946">
        <path
           style="stroke:none"
           d="m 2.328125,-4.4375 c 0,-0.1875 0,-0.1875 -0.203125,-0.1875 -0.453125,0.4375 -1.078125,0.4375 -1.359375,0.4375 v 0.25 c 0.15625,0 0.625,0 1,-0.1875 v 3.546875 c 0,0.234375 0,0.328125 -0.6875,0.328125 H 0.8125 V 0 c 0.125,0 0.984375,-0.03125 1.234375,-0.03125 0.21875,0 1.09375,0.03125 1.25,0.03125 V -0.25 H 3.03125 c -0.703125,0 -0.703125,-0.09375 -0.703125,-0.328125 z m 0,0"
           id="path7684" />
      </symbol>
    </g>
    <g
       id="g2680">
      <symbol
         overflow="visible"
         id="symbol8063">
        <path
           style="stroke:none"
           d=""
           id="path2196" />
      </symbol>
      <symbol
         overflow="visible"
         id="symbol687">
        <path
           style="stroke:none"
           d="m 2.046875,-3.984375 h 0.9375 c 0.203125,0 0.3125,0 0.3125,-0.203125 0,-0.109375 -0.109375,-0.109375 -0.28125,-0.109375 h -0.875 C 2.5,-5.71875 2.546875,-5.90625 2.546875,-5.96875 c 0,-0.171875 -0.125,-0.265625 -0.296875,-0.265625 -0.03125,0 -0.3125,0 -0.390625,0.359375 L 1.46875,-4.296875 h -0.9375 c -0.203125,0 -0.296875,0 -0.296875,0.1875 0,0.125 0.078125,0.125 0.28125,0.125 h 0.875 C 0.671875,-1.15625 0.625,-0.984375 0.625,-0.8125 0.625,-0.265625 1,0.109375 1.546875,0.109375 2.5625,0.109375 3.125,-1.34375 3.125,-1.421875 3.125,-1.53125 3.046875,-1.53125 3.015625,-1.53125 2.921875,-1.53125 2.90625,-1.5 2.859375,-1.390625 2.4375,-0.34375 1.90625,-0.109375 1.5625,-0.109375 c -0.203125,0 -0.3125,-0.125 -0.3125,-0.453125 0,-0.25 0.03125,-0.3125 0.0625,-0.484375 z m 0,0"
           id="path762" />
      </symbol>
      <symbol
         overflow="visible"
         id="symbol2523">
        <path
           style="stroke:none"
           d=""
           id="path3844" />
      </symbol>
      <symbol
         overflow="visible"
         id="symbol1441">
        <path
           style="stroke:none"
           d="M 3.515625,-1.265625 H 3.28125 c -0.015625,0.15625 -0.09375,0.5625 -0.1875,0.625 C 3.046875,-0.59375 2.515625,-0.59375 2.40625,-0.59375 H 1.125 c 0.734375,-0.640625 0.984375,-0.84375 1.390625,-1.171875 0.515625,-0.40625 1,-0.84375 1,-1.5 0,-0.84375 -0.734375,-1.359375 -1.625,-1.359375 -0.859375,0 -1.453125,0.609375 -1.453125,1.25 0,0.34375 0.296875,0.390625 0.375,0.390625 0.15625,0 0.359375,-0.125 0.359375,-0.375 0,-0.125 -0.046875,-0.375 -0.40625,-0.375 C 0.984375,-4.21875 1.453125,-4.375 1.78125,-4.375 c 0.703125,0 1.0625,0.546875 1.0625,1.109375 0,0.609375 -0.4375,1.078125 -0.65625,1.328125 L 0.515625,-0.265625 C 0.4375,-0.203125 0.4375,-0.1875 0.4375,0 h 2.875 z m 0,0"
           id="path5522" />
      </symbol>
    </g>
    <g
       id="g4101">
      <symbol
         overflow="visible"
         id="symbol9696">
        <path
           style="stroke:none"
           d=""
           id="path3757" />
      </symbol>
      <symbol
         overflow="visible"
         id="symbol4897">
        <path
           style="stroke:none"
           d="m 2.046875,-3.984375 h 0.9375 c 0.203125,0 0.3125,0 0.3125,-0.203125 0,-0.109375 -0.109375,-0.109375 -0.28125,-0.109375 h -0.875 C 2.5,-5.71875 2.546875,-5.90625 2.546875,-5.96875 c 0,-0.171875 -0.125,-0.265625 -0.296875,-0.265625 -0.03125,0 -0.3125,0 -0.390625,0.359375 L 1.46875,-4.296875 h -0.9375 c -0.203125,0 -0.296875,0 -0.296875,0.1875 0,0.125 0.078125,0.125 0.28125,0.125 h 0.875 C 0.671875,-1.15625 0.625,-0.984375 0.625,-0.8125 0.625,-0.265625 1,0.109375 1.546875,0.109375 2.5625,0.109375 3.125,-1.34375 3.125,-1.421875 3.125,-1.53125 3.046875,-1.53125 3.015625,-1.53125 2.921875,-1.53125 2.90625,-1.5 2.859375,-1.390625 2.4375,-0.34375 1.90625,-0.109375 1.5625,-0.109375 c -0.203125,0 -0.3125,-0.125 -0.3125,-0.453125 0,-0.25 0.03125,-0.3125 0.0625,-0.484375 z m 0,0"
           id="path6430" />
      </symbol>
      <symbol
         overflow="visible"
         id="symbol8250">
        <path
           style="stroke:none"
           d=""
           id="path9905" />
      </symbol>
      <symbol
         overflow="visible"
         id="symbol8811">
        <path
           style="stroke:none"
           d="m 1.90625,-2.328125 c 0.546875,0 0.9375,0.375 0.9375,1.125 0,0.859375 -0.515625,1.125 -0.90625,1.125 -0.28125,0 -0.90625,-0.078125 -1.1875,-0.5 0.328125,0 0.40625,-0.234375 0.40625,-0.390625 0,-0.21875 -0.171875,-0.375 -0.390625,-0.375 -0.1875,0 -0.390625,0.125 -0.390625,0.40625 0,0.65625 0.71875,1.078125 1.5625,1.078125 0.96875,0 1.640625,-0.65625 1.640625,-1.34375 0,-0.546875 -0.4375,-1.09375 -1.203125,-1.25 0.71875,-0.265625 0.984375,-0.78125 0.984375,-1.21875 0,-0.546875 -0.625,-0.953125 -1.40625,-0.953125 -0.765625,0 -1.359375,0.375 -1.359375,0.9375 0,0.234375 0.15625,0.359375 0.359375,0.359375 0.21875,0 0.359375,-0.15625 0.359375,-0.34375 0,-0.203125 -0.140625,-0.359375 -0.359375,-0.375 0.25,-0.296875 0.71875,-0.375 0.984375,-0.375 0.3125,0 0.75,0.15625 0.75,0.75 0,0.296875 -0.09375,0.625 -0.28125,0.828125 -0.21875,0.265625 -0.421875,0.28125 -0.765625,0.3125 -0.171875,0.015625 -0.1875,0.015625 -0.21875,0.015625 -0.015625,0 -0.078125,0.015625 -0.078125,0.09375 0,0.09375 0.0625,0.09375 0.1875,0.09375 z m 0,0"
           id="path4518" />
      </symbol>
    </g>
    <g
       id="g5860">
      <symbol
         overflow="visible"
         id="symbol3050">
        <path
           style="stroke:none"
           d=""
           id="path1496" />
      </symbol>
      <symbol
         overflow="visible"
         id="symbol751">
        <path
           style="stroke:none"
           d="m 2.046875,-3.984375 h 0.9375 c 0.203125,0 0.3125,0 0.3125,-0.203125 0,-0.109375 -0.109375,-0.109375 -0.28125,-0.109375 h -0.875 C 2.5,-5.71875 2.546875,-5.90625 2.546875,-5.96875 c 0,-0.171875 -0.125,-0.265625 -0.296875,-0.265625 -0.03125,0 -0.3125,0 -0.390625,0.359375 L 1.46875,-4.296875 h -0.9375 c -0.203125,0 -0.296875,0 -0.296875,0.1875 0,0.125 0.078125,0.125 0.28125,0.125 h 0.875 C 0.671875,-1.15625 0.625,-0.984375 0.625,-0.8125 0.625,-0.265625 1,0.109375 1.546875,0.109375 2.5625,0.109375 3.125,-1.34375 3.125,-1.421875 3.125,-1.53125 3.046875,-1.53125 3.015625,-1.53125 2.921875,-1.53125 2.90625,-1.5 2.859375,-1.390625 2.4375,-0.34375 1.90625,-0.109375 1.5625,-0.109375 c -0.203125,0 -0.3125,-0.125 -0.3125,-0.453125 0,-0.25 0.03125,-0.3125 0.0625,-0.484375 z m 0,0"
           id="path1490" />
      </symbol>
      <symbol
         overflow="visible"
         id="symbol5892">
        <path
           style="stroke:none"
           d=""
           id="path8533" />
      </symbol>
      <symbol
         overflow="visible"
         id="symbol4045">
        <path
           style="stroke:none"
           d="m 3.6875,-1.140625 v -0.25 H 2.90625 V -4.5 c 0,-0.140625 0,-0.203125 -0.140625,-0.203125 -0.09375,0 -0.125,0 -0.1875,0.109375 l -2.3125,3.203125 v 0.25 h 2.0625 v 0.5625 c 0,0.25 0,0.328125 -0.578125,0.328125 H 1.5625 V 0 C 1.921875,-0.015625 2.359375,-0.03125 2.609375,-0.03125 2.875,-0.03125 3.3125,-0.015625 3.671875,0 v -0.25 h -0.1875 C 2.90625,-0.25 2.90625,-0.328125 2.90625,-0.578125 v -0.5625 z M 2.375,-3.9375 v 2.546875 H 0.53125 Z m 0,0"
           id="path1048" />
      </symbol>
    </g>
    <g
       id="g6481">
      <symbol
         overflow="visible"
         id="symbol9082">
        <path
           style="stroke:none"
           d=""
           id="path6711" />
      </symbol>
      <symbol
         overflow="visible"
         id="symbol4555">
        <path
           style="stroke:none"
           d="M 2.234375,-3.515625 V -6.09375 c 0,-0.234375 0,-0.359375 0.21875,-0.390625 C 2.546875,-6.5 2.84375,-6.5 3.046875,-6.5 c 0.890625,0 2,0.046875 2,1.484375 0,0.6875 -0.234375,1.5 -1.703125,1.5 z m 2.109375,0.125 C 5.296875,-3.625 6.078125,-4.234375 6.078125,-5.015625 6.078125,-5.96875 4.9375,-6.8125 3.484375,-6.8125 H 0.34375 V -6.5 h 0.25 c 0.765625,0 0.78125,0.109375 0.78125,0.46875 v 5.25 c 0,0.359375 -0.015625,0.46875 -0.78125,0.46875 h -0.25 V 0 c 0.359375,-0.03125 1.078125,-0.03125 1.453125,-0.03125 0.390625,0 1.109375,0 1.46875,0.03125 v -0.3125 h -0.25 c -0.765625,0 -0.78125,-0.109375 -0.78125,-0.46875 V -3.296875 H 3.375 c 0.15625,0 0.578125,0 0.9375,0.34375 0.375,0.34375 0.375,0.65625 0.375,1.328125 0,0.640625 0,1.046875 0.40625,1.421875 0.40625,0.359375 0.953125,0.421875 1.25,0.421875 0.78125,0 0.953125,-0.8125 0.953125,-1.09375 0,-0.0625 0,-0.171875 -0.125,-0.171875 -0.109375,0 -0.109375,0.09375 -0.125,0.15625 C 6.984375,-0.171875 6.640625,0 6.390625,0 5.90625,0 5.828125,-0.515625 5.6875,-1.4375 L 5.546875,-2.234375 C 5.375,-2.875 4.890625,-3.203125 4.34375,-3.390625 Z m 0,0"
           id="path4162" />
      </symbol>
      <symbol
         overflow="visible"
         id="symbol197">
        <path
           style="stroke:none"
           d="m 2.265625,-3.15625 h 1.6875 c 1.1875,0 2.265625,-0.796875 2.265625,-1.796875 C 6.21875,-5.9375 5.234375,-6.8125 3.875,-6.8125 H 0.34375 V -6.5 h 0.25 c 0.765625,0 0.78125,0.109375 0.78125,0.46875 v 5.25 c 0,0.359375 -0.015625,0.46875 -0.78125,0.46875 h -0.25 V 0 c 0.359375,-0.03125 1.09375,-0.03125 1.46875,-0.03125 0.375,0 1.125,0 1.484375,0.03125 v -0.3125 h -0.25 c -0.765625,0 -0.78125,-0.109375 -0.78125,-0.46875 z m -0.03125,-0.25 v -2.6875 C 2.234375,-6.4375 2.25,-6.5 2.71875,-6.5 h 0.890625 c 1.578125,0 1.578125,1.0625 1.578125,1.546875 0,0.46875 0,1.546875 -1.578125,1.546875 z m 0,0"
           id="path8537" />
      </symbol>
      <symbol
         overflow="visible"
         id="symbol6110">
        <path
           style="stroke:none"
           d="M 2.40625,-6.59375 C 2.3125,-6.8125 2.28125,-6.8125 2.046875,-6.8125 H 0.375 V -6.5 h 0.234375 c 0.765625,0 0.78125,0.109375 0.78125,0.46875 v 4.984375 c 0,0.265625 0,0.734375 -1.015625,0.734375 V 0 c 0.34375,-0.015625 0.828125,-0.03125 1.15625,-0.03125 0.328125,0 0.828125,0.015625 1.171875,0.03125 v -0.3125 c -1.03125,0 -1.03125,-0.46875 -1.03125,-0.734375 v -5.375 H 1.6875 L 4.09375,-0.21875 C 4.140625,-0.09375 4.1875,0 4.28125,0 4.390625,0 4.421875,-0.078125 4.46875,-0.1875 L 6.921875,-6.5 v 5.71875 c 0,0.359375 -0.015625,0.46875 -0.78125,0.46875 H 5.90625 V 0 c 0.359375,-0.03125 1.046875,-0.03125 1.4375,-0.03125 0.375,0 1.046875,0 1.421875,0.03125 v -0.3125 h -0.25 c -0.765625,0 -0.78125,-0.109375 -0.78125,-0.46875 v -5.25 C 7.734375,-6.390625 7.75,-6.5 8.515625,-6.5 h 0.25 v -0.3125 h -1.6875 C 6.8125,-6.8125 6.8125,-6.796875 6.75,-6.625 L 4.5625,-1 Z m 0,0"
           id="path6744" />
      </symbol>
    </g>
    <g
       id="g3781">
      <symbol
         overflow="visible"
         id="symbol9476">
        <path
           style="stroke:none"
           d=""
           id="path8406" />
      </symbol>
      <symbol
         overflow="visible"
         id="symbol6381">
        <path
           style="stroke:none"
           d="m 7.578125,-6.921875 c 0,-0.03125 -0.015625,-0.109375 -0.109375,-0.109375 -0.03125,0 -0.046875,0.015625 -0.15625,0.125 L 6.625,-6.140625 C 6.53125,-6.28125 6.078125,-7.03125 4.96875,-7.03125 2.734375,-7.03125 0.5,-4.828125 0.5,-2.515625 0.5,-0.875 1.671875,0.21875 3.203125,0.21875 c 0.859375,0 1.625,-0.390625 2.15625,-0.859375 0.921875,-0.8125 1.09375,-1.71875 1.09375,-1.75 C 6.453125,-2.5 6.34375,-2.5 6.328125,-2.5 c -0.0625,0 -0.109375,0.03125 -0.125,0.109375 -0.09375,0.28125 -0.328125,1 -1.015625,1.578125 -0.6875,0.546875 -1.3125,0.71875 -1.828125,0.71875 -0.890625,0 -1.953125,-0.515625 -1.953125,-2.0625 0,-0.578125 0.203125,-2.1875 1.203125,-3.359375 0.609375,-0.703125 1.546875,-1.203125 2.4375,-1.203125 1.015625,0 1.609375,0.765625 1.609375,1.921875 0,0.40625 -0.03125,0.40625 -0.03125,0.515625 0,0.09375 0.109375,0.09375 0.140625,0.09375 0.125,0 0.125,-0.015625 0.1875,-0.203125 z m 0,0"
           id="path4042" />
      </symbol>
    </g>
    <g
       id="g5105">
      <symbol
         overflow="visible"
         id="symbol5379">
        <path
           style="stroke:none"
           d=""
           id="path9316" />
      </symbol>
      <symbol
         overflow="visible"
         id="symbol5554">
        <path
           style="stroke:none"
           d="m 7.578125,-6.921875 c 0,-0.03125 -0.015625,-0.109375 -0.109375,-0.109375 -0.03125,0 -0.046875,0.015625 -0.15625,0.125 L 6.625,-6.140625 C 6.53125,-6.28125 6.078125,-7.03125 4.96875,-7.03125 2.734375,-7.03125 0.5,-4.828125 0.5,-2.515625 0.5,-0.875 1.671875,0.21875 3.203125,0.21875 c 0.859375,0 1.625,-0.390625 2.15625,-0.859375 0.921875,-0.8125 1.09375,-1.71875 1.09375,-1.75 C 6.453125,-2.5 6.34375,-2.5 6.328125,-2.5 c -0.0625,0 -0.109375,0.03125 -0.125,0.109375 -0.09375,0.28125 -0.328125,1 -1.015625,1.578125 -0.6875,0.546875 -1.3125,0.71875 -1.828125,0.71875 -0.890625,0 -1.953125,-0.515625 -1.953125,-2.0625 0,-0.578125 0.203125,-2.1875 1.203125,-3.359375 0.609375,-0.703125 1.546875,-1.203125 2.4375,-1.203125 1.015625,0 1.609375,0.765625 1.609375,1.921875 0,0.40625 -0.03125,0.40625 -0.03125,0.515625 0,0.09375 0.109375,0.09375 0.140625,0.09375 0.125,0 0.125,-0.015625 0.1875,-0.203125 z m 0,0"
           id="path4916" />
      </symbol>
    </g>
    <g
       id="g9630">
      <symbol
         overflow="visible"
         id="symbol2400">
        <path
           style="stroke:none"
           d=""
           id="path5993" />
      </symbol>
      <symbol
         overflow="visible"
         id="symbol4817">
        <path
           style="stroke:none"
           d="m 7.578125,-6.921875 c 0,-0.03125 -0.015625,-0.109375 -0.109375,-0.109375 -0.03125,0 -0.046875,0.015625 -0.15625,0.125 L 6.625,-6.140625 C 6.53125,-6.28125 6.078125,-7.03125 4.96875,-7.03125 2.734375,-7.03125 0.5,-4.828125 0.5,-2.515625 0.5,-0.875 1.671875,0.21875 3.203125,0.21875 c 0.859375,0 1.625,-0.390625 2.15625,-0.859375 0.921875,-0.8125 1.09375,-1.71875 1.09375,-1.75 C 6.453125,-2.5 6.34375,-2.5 6.328125,-2.5 c -0.0625,0 -0.109375,0.03125 -0.125,0.109375 -0.09375,0.28125 -0.328125,1 -1.015625,1.578125 -0.6875,0.546875 -1.3125,0.71875 -1.828125,0.71875 -0.890625,0 -1.953125,-0.515625 -1.953125,-2.0625 0,-0.578125 0.203125,-2.1875 1.203125,-3.359375 0.609375,-0.703125 1.546875,-1.203125 2.4375,-1.203125 1.015625,0 1.609375,0.765625 1.609375,1.921875 0,0.40625 -0.03125,0.40625 -0.03125,0.515625 0,0.09375 0.109375,0.09375 0.140625,0.09375 0.125,0 0.125,-0.015625 0.1875,-0.203125 z m 0,0"
           id="path6517" />
      </symbol>
    </g>
    <linearGradient
       inkscape:collect="always"
       xlink:href="#linearGradient3666"
       id="linearGradient3668"
       x1="174.90799"
       y1="115.86159"
       x2="181.37209"
       y2="115.86159"
       gradientUnits="userSpaceOnUse" />
  </defs>
  <sodipodi:namedview
     id="base"
     pagecolor="#ffffff"
     bordercolor="#666666"
     borderopacity="1.0"
     inkscape:pageopacity="0.0"
     inkscape:pageshadow="2"
     inkscape:zoom="1.4"
     inkscape:cx="301.82589"
     inkscape:cy="203.21745"
     inkscape:document-units="mm"
     inkscape:current-layer="layer1"
     inkscape:document-rotation="0"
     showgrid="false"
     inkscape:window-width="1920"
     inkscape:window-height="1043"
     inkscape:window-x="0"
     inkscape:window-y="0"
     inkscape:window-maximized="1"
     fit-margin-top="0"
     fit-margin-left="0"
     fit-margin-right="0"
     fit-margin-bottom="0" />
  <metadata
     id="metadata5">
    <rdf:RDF>
      <cc:Work
         rdf:about="">
        <dc:format>image/svg+xml</dc:format>
        <dc:type
           rdf:resource="http://purl.org/dc/dcmitype/StillImage" />
        <dc:title></dc:title>
      </cc:Work>
    </rdf:RDF>
  </metadata>
  <g
     inkscape:label="Calque 1"
     inkscape:groupmode="layer"
     id="layer1"
     transform="translate(-4.5320973,-8.3239841)">
    <rect
       style="fill:#24292e;fill-opacity:1;stroke-width:0.264999"
       id="rect837"
       width="192.42465"
       height="113.53735"
       x="4.5320973"
       y="8.3239841" />
    <text
       xml:space="preserve"
       style="font-style:normal;font-weight:normal;font-size:10.5833px;line-height:1.25;font-family:sans-serif;fill:#000000;fill-opacity:1;stroke:none;stroke-width:0.264583"
       x="74.844276"
       y="18.984423"
       id="text835"><tspan
         sodipodi:role="line"
         id="tspan833"
         x="74.844276"
         y="18.984423"
         style="fill:#d2d4cd;fill-opacity:1;stroke-width:0.264583">Fan curve</tspan></text>
    <path
       style="fill:none;stroke:#dedfdc;stroke-width:0.665;stroke-linecap:butt;stroke-linejoin:miter;stroke-miterlimit:4;stroke-dasharray:none;stroke-opacity:1;marker-start:url(#Arrow2Mstart);marker-end:url(#Arrow2Mend)"
       d="M 43.070691,24.867006 V 110.26414 H 177.0646"
       id="path839"
       sodipodi:nodetypes="ccc" />
    <path
       style="fill:none;stroke:#dedfdc;stroke-width:0.865;stroke-linecap:butt;stroke-linejoin:miter;stroke-miterlimit:4;stroke-dasharray:none;stroke-opacity:1"
       d="m 41.943148,105.97008 h 2.156949"
       id="path1275" />
    <path
       style="fill:none;stroke:#dedfdc;stroke-width:0.865;stroke-linecap:butt;stroke-linejoin:miter;stroke-miterlimit:4;stroke-dasharray:none;stroke-opacity:1"
       d="m 41.943148,86.27566 h 2.156949"
       id="path1291" />
    <path
       style="fill:none;stroke:#dedfdc;stroke-width:0.865;stroke-linecap:butt;stroke-linejoin:miter;stroke-miterlimit:4;stroke-dasharray:none;stroke-opacity:1"
       d="m 41.943148,73.872683 h 2.156949"
       id="path1293" />
    <path
       style="fill:none;stroke:#dedfdc;stroke-width:0.865;stroke-linecap:butt;stroke-linejoin:miter;stroke-miterlimit:4;stroke-dasharray:none;stroke-opacity:1"
       d="m 41.943148,56.367834 h 2.156949"
       id="path1295" />
    <path
       style="fill:none;stroke:#dedfdc;stroke-width:0.865;stroke-linecap:butt;stroke-linejoin:miter;stroke-miterlimit:4;stroke-dasharray:none;stroke-opacity:1"
       d="m 41.943148,34.278686 h 2.156949"
       id="path1297" />
    <g
       inkscape:label=""
       transform="matrix(0.67713243,0,0,0.67713243,-25.261369,52.75988)"
       id="g1329"
       style="fill:#dedfdc;fill-opacity:1">
      <g
         id="g9758"
         style="fill:#dedfdc;fill-opacity:1">
        <g
           style="fill:#dedfdc;fill-opacity:1"
           id="g4340">
          <use
             xlink:href="#symbol1642"
             x="91.925003"
             y="81.962997"
             id="use9439"
             width="100%"
             height="100%"
             style="fill:#dedfdc;fill-opacity:1" />
        </g>
      </g>
    </g>
    <g
       inkscape:label=""
       transform="matrix(0.71383426,0,0,0.71383426,-42.164796,29.670589)"
       id="g1386"
       style="fill:#dedfdc;fill-opacity:1">
      <g
         id="g4669"
         style="fill:#dedfdc;fill-opacity:1">
        <g
           style="fill:#dedfdc;fill-opacity:1"
           id="g8777">
          <use
             xlink:href="#symbol2165"
             x="91.925003"
             y="81.962997"
             id="use3225"
             width="100%"
             height="100%"
             style="fill:#dedfdc;fill-opacity:1" />
          <use
             xlink:href="#symbol5411"
             x="96.906303"
             y="81.962997"
             id="use4303"
             width="100%"
             height="100%"
             style="fill:#dedfdc;fill-opacity:1" />
          <use
             xlink:href="#symbol5411"
             x="101.8876"
             y="81.962997"
             id="use9072"
             width="100%"
             height="100%"
             style="fill:#dedfdc;fill-opacity:1" />
          <use
             xlink:href="#symbol5411"
             x="106.8689"
             y="81.962997"
             id="use5715"
             width="100%"
             height="100%"
             style="fill:#dedfdc;fill-opacity:1" />
        </g>
      </g>
    </g>
    <g
       inkscape:label=""
       transform="matrix(0.71133538,0,0,0.71133538,-41.882283,17.418988)"
       id="g1462"
       style="fill:#dedfdc;fill-opacity:1">
      <g
         id="g2756"
         style="fill:#dedfdc;fill-opacity:1">
        <g
           style="fill:#dedfdc;fill-opacity:1"
           id="g3563">
          <use
             xlink:href="#symbol3981"
             x="91.925003"
             y="81.962997"
             id="use4407"
             width="100%"
             height="100%"
             style="fill:#dedfdc;fill-opacity:1" />
          <use
             xlink:href="#symbol6387"
             x="96.906303"
             y="81.962997"
             id="use9458"
             width="100%"
             height="100%"
             style="fill:#dedfdc;fill-opacity:1" />
          <use
             xlink:href="#symbol6387"
             x="101.8876"
             y="81.962997"
             id="use5290"
             width="100%"
             height="100%"
             style="fill:#dedfdc;fill-opacity:1" />
          <use
             xlink:href="#symbol6387"
             x="106.8689"
             y="81.962997"
             id="use6469"
             width="100%"
             height="100%"
             style="fill:#dedfdc;fill-opacity:1" />
        </g>
      </g>
    </g>
    <g
       inkscape:label=""
       transform="matrix(0.74651343,0,0,0.74651343,-45.41433,-2.3453978)"
       id="g1554"
       style="fill:#dedfdc;fill-opacity:1">
      <g
         id="g2278"
         style="fill:#dedfdc;fill-opacity:1">
        <g
           style="fill:#dedfdc;fill-opacity:1"
           id="g5234">
          <use
             xlink:href="#symbol4896"
             x="91.925003"
             y="81.962997"
             id="use4111"
             width="100%"
             height="100%"
             style="fill:#dedfdc;fill-opacity:1" />
          <use
             xlink:href="#symbol8643"
             x="96.906303"
             y="81.962997"
             id="use7168"
             width="100%"
             height="100%"
             style="fill:#dedfdc;fill-opacity:1" />
          <use
             xlink:href="#symbol1833"
             x="101.8876"
             y="81.962997"
             id="use2446"
             width="100%"
             height="100%"
             style="fill:#dedfdc;fill-opacity:1" />
          <use
             xlink:href="#symbol1833"
             x="106.8689"
             y="81.962997"
             id="use5578"
             width="100%"
             height="100%"
             style="fill:#dedfdc;fill-opacity:1" />
        </g>
      </g>
    </g>
    <g
       inkscape:label=""
       transform="matrix(0.74467544,0,0,0.74467544,-45.308623,-24.34486)"
       id="g1664"
       style="fill:#dedfdc;fill-opacity:1;stroke-width:1;stroke-miterlimit:4;stroke-dasharray:none">
      <g
         id="g5261"
         style="fill:#dedfdc;fill-opacity:1;stroke-width:1;stroke-miterlimit:4;stroke-dasharray:none">
        <g
           style="fill:#dedfdc;fill-opacity:1;stroke-width:1;stroke-miterlimit:4;stroke-dasharray:none"
           id="g1404">
          <use
             xlink:href="#symbol2358"
             x="91.925003"
             y="81.962997"
             id="use8064"
             width="100%"
             height="100%"
             style="fill:#dedfdc;fill-opacity:1;stroke-width:1;stroke-miterlimit:4;stroke-dasharray:none" />
          <use
             xlink:href="#symbol1646"
             x="96.906303"
             y="81.962997"
             id="use867"
             width="100%"
             height="100%"
             style="fill:#dedfdc;fill-opacity:1;stroke-width:1;stroke-miterlimit:4;stroke-dasharray:none" />
          <use
             xlink:href="#symbol6511"
             x="101.8876"
             y="81.962997"
             id="use4535"
             width="100%"
             height="100%"
             style="fill:#dedfdc;fill-opacity:1;stroke-width:1;stroke-miterlimit:4;stroke-dasharray:none" />
          <use
             xlink:href="#symbol6511"
             x="106.8689"
             y="81.962997"
             id="use9748"
             width="100%"
             height="100%"
             style="fill:#dedfdc;fill-opacity:1;stroke-width:1;stroke-miterlimit:4;stroke-dasharray:none" />
        </g>
      </g>
    </g>
    <g
       inkscape:label=""
       transform="matrix(0.61291711,0,0,0.61291711,17.194724,67.720846)"
       id="g1897"
       style="fill:#dedfdc;fill-opacity:1">
      <g
         id="g5127"
         style="fill:#dedfdc;fill-opacity:1">
        <g
           style="fill:#dedfdc;fill-opacity:1"
           id="g7870">
          <use
             xlink:href="#symbol9915"
             x="91.925003"
             y="81.962997"
             id="use647"
             width="100%"
             height="100%"
             style="fill:#dedfdc;fill-opacity:1" />
        </g>
        <g
           style="fill:#dedfdc;fill-opacity:1"
           id="g3597">
          <use
             xlink:href="#symbol7946"
             x="95.523003"
             y="83.457001"
             id="use7259"
             width="100%"
             height="100%"
             style="fill:#dedfdc;fill-opacity:1" />
        </g>
      </g>
    </g>
    <g
       inkscape:label=""
       transform="matrix(0.61291711,0,0,0.61291711,44.22869,67.720846)"
       id="g2036"
       style="fill:#dedfdc;fill-opacity:1">
      <g
         id="g6685"
         style="fill:#dedfdc;fill-opacity:1">
        <g
           style="fill:#dedfdc;fill-opacity:1"
           id="g379">
          <use
             xlink:href="#symbol687"
             x="91.925003"
             y="81.962997"
             id="use9368"
             width="100%"
             height="100%"
             style="fill:#dedfdc;fill-opacity:1" />
        </g>
        <g
           style="fill:#dedfdc;fill-opacity:1"
           id="g1480">
          <use
             xlink:href="#symbol1441"
             x="95.523003"
             y="83.457001"
             id="use9971"
             width="100%"
             height="100%"
             style="fill:#dedfdc;fill-opacity:1" />
        </g>
      </g>
    </g>
    <g
       inkscape:label=""
       transform="matrix(0.61291711,0,0,0.61291711,69.864271,67.67775)"
       id="g2190"
       style="fill:#dedfdc;fill-opacity:1">
      <g
         id="g1689"
         style="fill:#dedfdc;fill-opacity:1">
        <g
           style="fill:#dedfdc;fill-opacity:1"
           id="g7802">
          <use
             xlink:href="#symbol4897"
             x="91.925003"
             y="81.962997"
             id="use4085"
             width="100%"
             height="100%"
             style="fill:#dedfdc;fill-opacity:1" />
        </g>
        <g
           style="fill:#dedfdc;fill-opacity:1"
           id="g8338">
          <use
             xlink:href="#symbol8811"
             x="95.523003"
             y="83.457001"
             id="use1982"
             width="100%"
             height="100%"
             style="fill:#dedfdc;fill-opacity:1" />
        </g>
      </g>
    </g>
    <g
       inkscape:label=""
       transform="matrix(0.61291711,0,0,0.61291711,92.522767,67.720846)"
       id="g2359"
       style="fill:#dedfdc;fill-opacity:1">
      <g
         id="g6890"
         style="fill:#dedfdc;fill-opacity:1">
        <g
           style="fill:#dedfdc;fill-opacity:1"
           id="g7180">
          <use
             xlink:href="#symbol751"
             x="91.925003"
             y="81.962997"
             id="use6237"
             width="100%"
             height="100%"
             style="fill:#dedfdc;fill-opacity:1" />
        </g>
        <g
           style="fill:#dedfdc;fill-opacity:1"
           id="g9886">
          <use
             xlink:href="#symbol4045"
             x="95.523003"
             y="83.457001"
             id="use4965"
             width="100%"
             height="100%"
             style="fill:#dedfdc;fill-opacity:1" />
        </g>
      </g>
    </g>
    <g
       inkscape:label=""
       transform="matrix(0.47585476,0,0,0.47585476,2.3601291,-13.76124)"
       id="g2543"
       style="fill:#dedfdc;fill-opacity:1">
      <g
         id="g409"
         style="fill:#dedfdc;fill-opacity:1">
        <g
           style="fill:#dedfdc;fill-opacity:1"
           id="g5040">
          <use
             xlink:href="#symbol4555"
             x="91.925003"
             y="81.962997"
             id="use8422"
             width="100%"
             height="100%"
             style="fill:#dedfdc;fill-opacity:1" />
          <use
             xlink:href="#symbol197"
             x="99.258469"
             y="81.962997"
             id="use9175"
             width="100%"
             height="100%"
             style="fill:#dedfdc;fill-opacity:1" />
          <use
             xlink:href="#symbol6110"
             x="106.03902"
             y="81.962997"
             id="use967"
             width="100%"
             height="100%"
             style="fill:#dedfdc;fill-opacity:1" />
        </g>
      </g>
    </g>
    <rect
       style="fill:#dedfdc;fill-opacity:1;stroke:#dedfdc;stroke-width:1;stroke-miterlimit:4;stroke-dasharray:none;stroke-opacity:1"
       id="rect3152"
       width="32.0443"
       height="3.9075174"
       x="43.49868"
       y="106.03216" />
    <rect
       style="fill:#dedfdc;fill-opacity:0.456668;stroke:none;stroke-width:0.80201;stroke-miterlimit:4;stroke-dasharray:none;stroke-opacity:1"
       id="rect3164"
       width="5.6290073"
       height="19.188084"
       x="70.123451"
       y="86.573463" />
    <rect
       style="fill:#dedfdc;fill-opacity:1;stroke:#dedfdc;stroke-width:1;stroke-miterlimit:4;stroke-dasharray:none;stroke-opacity:1"
       id="rect3154"
       width="25.016411"
       height="22.844831"
       x="75.542984"
       y="87.094841" />
    <rect
       style="fill:#dedfdc;fill-opacity:1;stroke:#dedfdc;stroke-width:1;stroke-miterlimit:4;stroke-dasharray:none;stroke-opacity:1"
       id="rect3158"
       width="24.755224"
       height="34.276768"
       x="100.55939"
       y="75.66291" />
    <rect
       style="fill:#dedfdc;fill-opacity:1;stroke:#dedfdc;stroke-width:1;stroke-miterlimit:4;stroke-dasharray:none;stroke-opacity:1"
       id="rect3160"
       width="23.599646"
       height="52.13736"
       x="125.31462"
       y="57.802311" />
    <rect
       style="fill:#dedfdc;fill-opacity:1;stroke:#dedfdc;stroke-width:1;stroke-miterlimit:4;stroke-dasharray:none;stroke-opacity:1"
       id="rect3162"
       width="21.735491"
       height="75.91391"
       x="148.91426"
       y="34.025764" />
    <rect
       style="fill:#dedfdc;fill-opacity:0.456668;stroke:none;stroke-width:0.80201;stroke-miterlimit:4;stroke-dasharray:none;stroke-opacity:1"
       id="rect3168"
       width="5.6290073"
       height="19.188084"
       x="94.657944"
       y="75.213135" />
    <rect
       style="fill:#dedfdc;fill-opacity:0.456668;stroke:none;stroke-width:0.80201;stroke-miterlimit:4;stroke-dasharray:none;stroke-opacity:1"
       id="rect3170"
       width="5.6290073"
       height="19.188084"
       x="119.89116"
       y="57.253937" />
    <rect
       style="fill:#dedfdc;fill-opacity:0.456668;stroke:none;stroke-width:0.902198;stroke-miterlimit:4;stroke-dasharray:none;stroke-opacity:1"
       id="rect3172"
       width="5.6290073"
       height="24.281528"
       x="143.28526"
       y="33.520779" />
    <text
       xml:space="preserve"
       style="font-style:normal;font-weight:normal;font-size:6.16315px;line-height:1.25;font-family:sans-serif;fill:#dedfdc;fill-opacity:1;stroke:none;stroke-width:0.154079"
       x="174.32117"
       y="118.10506"
       id="text3660"><tspan
         sodipodi:role="line"
         id="tspan3658"
         x="174.32117"
         y="118.10506"
         style="fill:#dedfdc;fill-opacity:1;stroke-width:0.154079">°C</tspan></text>
  </g>
</svg>
